<?xml version="1.0" encoding="iso-8859-1"?>
<!-- Generator: Adobe Illustrator 19.0.0, SVG Export Plug-In . SVG Version: 6.00 Build 0)  -->
<svg version="1.1" id="Capa_1" xmlns="http://www.w3.org/2000/svg" xmlns:xlink="http://www.w3.org/1999/xlink" x="0px" y="0px"
	 viewBox="0 0 512 512" style="enable-background:new 0 0 512 512;" xml:space="preserve">
<g>
	<g transform="translate(1 1)">
		<path style="fill:#CFD8DC;" d="M412.867,101.4v366.933H71.533c-9.053,0.003-17.737-3.593-24.139-9.995
			c-6.402-6.402-9.997-15.085-9.995-24.139V101.4c-0.003-9.054,3.593-17.737,9.995-24.139c6.402-6.402,15.085-9.997,24.139-9.995
			H114.2c0.028-9.414,7.652-17.039,17.067-17.067h25.6V24.6c0.028-9.414,7.652-17.039,17.067-17.067h102.4
			c9.414,0.028,17.039,7.652,17.067,17.067v25.6H319c9.414,0.028,17.039,7.652,17.067,17.067h42.667
			c9.053-0.003,17.737,3.593,24.139,9.995C409.274,83.663,412.869,92.346,412.867,101.4z"/>
		<path style="fill:#607D8B;" d="M412.867,101.4v366.933h-25.6V101.4c0.003-9.054-3.593-17.737-9.995-24.139
			c-6.402-6.402-15.085-9.997-24.139-9.995l25.6,0c9.053-0.003,17.737,3.593,24.139,9.995
			C409.274,83.663,412.869,92.346,412.867,101.4z"/>
		<g>
			<path style="fill:#00838F;" d="M131.267,50.2H319c9.426,0,17.067,7.641,17.067,17.067V101.4c0,9.426-7.641,17.067-17.067,17.067
				H131.267c-9.426,0-17.067-7.641-17.067-17.067V67.267C114.2,57.841,121.841,50.2,131.267,50.2z"/>
			<path style="fill:#00838F;" d="M293.4,24.6v25.6H156.867V24.6c0.028-9.414,7.652-17.039,17.067-17.067h102.4
				C285.748,7.561,293.372,15.186,293.4,24.6z"/>
		</g>
		<g>
			<path style="fill:#00BCD4;" d="M131.267,50.2H293.4c9.426,0,17.067,7.641,17.067,17.067V101.4
				c0,9.426-7.641,17.067-17.067,17.067H131.267c-9.426,0-17.067-7.641-17.067-17.067V67.267
				C114.2,57.841,121.841,50.2,131.267,50.2z"/>
			<path style="fill:#00BCD4;" d="M267.8,24.6v25.6H156.867V24.6c0.028-9.414,7.652-17.039,17.067-17.067h76.8
				C260.148,7.561,267.773,15.186,267.8,24.6z"/>
		</g>
		<path style="fill:#FDD834;" d="M472.6,178.2v307.2c-0.028,9.414-7.653,17.039-17.067,17.067h-256
			c-7.482-0.008-14.087-4.885-16.299-12.032c-0.232-0.513-0.376-1.061-0.427-1.621c-0.244-1.121-0.359-2.266-0.341-3.413V178.2
			c-0.017-1.147,0.097-2.292,0.341-3.413c0.051-0.56,0.195-1.108,0.427-1.621c2.211-7.148,8.817-12.024,16.299-12.032h256
			C464.948,161.161,472.573,168.786,472.6,178.2z"/>
		<path style="fill:#FFEB3A;" d="M447,178.2v307.2c0.374,8.983-6.552,16.594-15.531,17.067H197.997
			c-7.075-0.213-13.126-5.146-14.763-12.032c-0.232-0.513-0.376-1.061-0.427-1.621c-0.244-1.121-0.359-2.266-0.341-3.413V178.2
			c-0.017-1.147,0.097-2.292,0.341-3.413c0.051-0.56,0.195-1.108,0.427-1.621c1.636-6.886,7.688-11.819,14.763-12.032h233.472
			C440.448,161.606,447.374,169.217,447,178.2z"/>
	</g>
	<g>
		<path d="M456.533,153.6H422.4v-51.2c-0.028-23.553-19.114-42.639-42.667-42.667h-35.706C340.435,49.534,330.813,42.7,320,42.667
			h-17.067V25.6c-0.015-14.132-11.468-25.585-25.6-25.6h-102.4c-14.132,0.015-25.585,11.468-25.6,25.6v17.067h-17.067
			c-10.813,0.033-20.435,6.868-24.028,17.067H72.533C48.981,59.761,29.894,78.847,29.867,102.4v332.8
			c0.028,23.553,19.114,42.639,42.667,42.667h102.4v8.533c0.015,14.132,11.468,25.585,25.6,25.6h256
			c14.132-0.015,25.585-11.468,25.6-25.6V179.2C482.118,165.068,470.665,153.615,456.533,153.6z M166.4,25.6
			c0.006-4.71,3.823-8.527,8.533-8.533h102.4c4.71,0.006,8.527,3.823,8.533,8.533v17.067H166.4V25.6z M132.267,59.733H320
			c4.71,0.006,8.527,3.823,8.533,8.533V102.4c-0.006,4.71-3.823,8.527-8.533,8.533H132.267c-4.71-0.006-8.527-3.823-8.533-8.533
			V68.267C123.739,63.556,127.556,59.739,132.267,59.733z M72.533,460.8c-14.132-0.015-25.585-11.468-25.6-25.6V102.4
			c0.015-14.132,11.468-25.585,25.6-25.6h34.133v25.6c0.015,14.132,11.468,25.585,25.6,25.6H320
			c14.132-0.015,25.585-11.468,25.6-25.6V76.8h34.133c14.132,0.015,25.585,11.468,25.6,25.6v51.2h-204.8
			c-14.132,0.015-25.585,11.468-25.6,25.6v281.6H72.533z M465.067,486.4c-0.006,4.71-3.823,8.527-8.533,8.533h-256
			c-4.71-0.006-8.527-3.823-8.533-8.533V179.2c0.006-4.71,3.823-8.527,8.533-8.533h256c4.71,0.006,8.527,3.823,8.533,8.533V486.4z"
			/>
		<path d="M405.333,256h-153.6c-4.713,0-8.533,3.821-8.533,8.533s3.821,8.533,8.533,8.533h153.6c4.713,0,8.533-3.82,8.533-8.533
			S410.046,256,405.333,256z"/>
		<path d="M405.333,298.667h-153.6c-4.713,0-8.533,3.82-8.533,8.533s3.821,8.533,8.533,8.533h153.6c4.713,0,8.533-3.82,8.533-8.533
			S410.046,298.667,405.333,298.667z"/>
		<path d="M405.333,341.333h-153.6c-4.713,0-8.533,3.821-8.533,8.533c0,4.713,3.821,8.533,8.533,8.533h153.6
			c4.713,0,8.533-3.821,8.533-8.533C413.867,345.154,410.046,341.333,405.333,341.333z"/>
		<path d="M405.333,384h-153.6c-4.713,0-8.533,3.82-8.533,8.533s3.821,8.533,8.533,8.533h153.6c4.713,0,8.533-3.82,8.533-8.533
			S410.046,384,405.333,384z"/>
	</g>
</g>
<g>
</g>
<g>
</g>
<g>
</g>
<g>
</g>
<g>
</g>
<g>
</g>
<g>
</g>
<g>
</g>
<g>
</g>
<g>
</g>
<g>
</g>
<g>
</g>
<g>
</g>
<g>
</g>
<g>
</g>
</svg>
