<svg height="512pt" viewBox="-38 0 512 512.00197" width="512pt" xmlns="http://www.w3.org/2000/svg"><path d="m426.667969 119.46875v247.125c-.214844 9.792969-8.296875 17.570312-18.089844 17.410156h-280.578125v-358.0625c.214844-9.789062 8.300781-17.566406 18.089844-17.40625h186.027344l.683593 98.21875c.046875 7.035156 5.765625 12.714844 12.800781 12.714844zm0 0" fill="#f57c00"/><path d="m401.066406 119.46875v247.125c-.214844 9.792969-8.296875 17.570312-18.089844 17.410156h-254.976562v-358.0625c.214844-9.789062 8.300781-17.566406 18.089844-17.40625h160.429687l.679688 98.21875c.046875 7.035156 5.765625 12.714844 12.800781 12.714844zm0 0" fill="#fec108"/><path d="m426.667969 111.019531v8.449219h-81.066407c-7.035156 0-12.753906-5.679688-12.800781-12.714844l-.683593-98.21875h5.972656zm0 0" fill="#fdd834"/><path d="m247.46875 362.667969v42.667969c0 7.070312-5.730469 12.800781-12.800781 12.800781h-72.535157v72.53125c0 7.070312-5.730468 12.800781-12.796874 12.800781h-42.667969c-7.070313 0-12.800781-5.730469-12.800781-12.800781v-72.53125h-72.53125c-7.070313 0-12.800782-5.730469-12.800782-12.800781v-42.667969c0-7.070313 5.730469-12.800781 12.800782-12.800781h72.53125v-72.53125c0-7.070313 5.730468-12.800782 12.800781-12.800782h42.667969c7.066406 0 12.796874 5.730469 12.796874 12.800782v72.53125h72.535157c7.070312 0 12.800781 5.730468 12.800781 12.800781zm0 0" fill="#1566c0"/><path d="m221.867188 362.667969v42.667969c0 7.070312-5.730469 12.800781-12.800782 12.800781h-72.53125v72.53125c0 7.070312-5.730468 12.800781-12.800781 12.800781h-17.066406c-7.070313 0-12.800781-5.730469-12.800781-12.800781v-72.53125h-72.53125c-7.070313 0-12.800782-5.730469-12.800782-12.800781v-42.667969c0-7.070313 5.730469-12.800781 12.800782-12.800781h72.53125v-72.53125c0-7.070313 5.730468-12.800782 12.800781-12.800782h17.066406c7.070313 0 12.800781 5.730469 12.800781 12.800782v72.53125h72.53125c7.070313 0 12.800782 5.730468 12.800782 12.800781zm0 0" fill="#02a9f4"/><path d="m408.578125 375.46875h-126.976563c-4.714843 0-8.535156 3.820312-8.535156 8.535156 0 4.710938 3.820313 8.53125 8.535156 8.53125h126.976563c14.507813.175782 26.421875-11.429687 26.621094-25.941406v-255.574219c.003906-2.050781-.730469-4.035156-2.070313-5.589843l-88.578125-102.476563c-1.621093-1.875-3.980469-2.953125-6.460937-2.94921875h-192c-14.507813-.17578125-26.421875 11.42968775-26.621094 25.93749975v204.460938c0 4.710937 3.820312 8.53125 8.53125 8.53125 4.714844 0 8.535156-3.820313 8.535156-8.53125v-204.460938c.203125-5.082031 4.472656-9.046875 9.554688-8.871094h177.546875l.632812 89.742188c.109375 11.714844 9.621094 21.15625 21.332031 21.191406h72.53125v238.589844c-.203124 5.082031-4.472656 9.046875-9.554687 8.875zm-67.242187-268.800781-.554688-82.039063 74.535156 86.304688h-69.714844c-2.355468 0-4.265624-1.910156-4.265624-4.265625zm0 0"/><path d="m106.667969 512.003906h42.667969c11.78125 0 21.332031-9.554687 21.332031-21.335937v-64h64c11.78125 0 21.332031-9.550781 21.332031-21.332031v-42.667969c0-11.78125-9.550781-21.332031-21.332031-21.332031h-64v-64c0-11.78125-9.550781-21.332032-21.332031-21.332032h-42.667969c-11.78125 0-21.332031 9.550782-21.332031 21.332032v64h-64c-11.785157 0-21.335938 9.550781-21.335938 21.332031v42.667969c0 11.78125 9.550781 21.332031 21.335938 21.332031h64v64c0 11.78125 9.550781 21.335937 21.332031 21.335937zm-89.601563-106.667968v-42.667969c0-2.355469 1.910156-4.265625 4.269532-4.265625h72.53125c4.714843 0 8.535156-3.820313 8.535156-8.535156v-72.53125c0-2.355469 1.910156-4.265626 4.265625-4.265626h42.667969c2.355468 0 4.265624 1.910157 4.265624 4.265626v72.53125c0 4.714843 3.820313 8.535156 8.53125 8.535156h72.535157c2.355469 0 4.265625 1.910156 4.265625 4.265625v42.667969c0 2.355468-1.910156 4.265624-4.265625 4.265624h-72.535157c-4.710937 0-8.53125 3.820313-8.53125 8.535157v72.53125c0 2.355469-1.910156 4.265625-4.265624 4.265625h-42.667969c-2.355469 0-4.265625-1.910156-4.265625-4.265625v-72.53125c0-4.714844-3.820313-8.535157-8.535156-8.535157h-72.53125c-2.359376 0-4.269532-1.910156-4.269532-4.265624zm0 0"/></svg>