<svg height="512" viewBox="0 0 61 30" width="512" xmlns="http://www.w3.org/2000/svg"><g id="100---Right-Arrow" fill="none"><g id="Icons" transform="translate(1 1)"><path id="Shape" d="m45.44 2.62h-.01l-11.43 2.38 3.93 2.21.5.28c-4.6742099 3.6822883-10.480783 5.6295932-16.43 5.51-7 0-14-4-14-4l-8 5v9s6 5 21 5c16.1 0 22.86-5.74 24.55-7.5l4.45 2.5 8-14v-9z" fill="#f0c419"/><path id="Shape" d="m58 0-8 14-2.7-1.52-1.75-.98c-.04.04-.07.08-.11.12h-.01c-.1.1-.2.2-.33.32-2.0977988 1.8597134-4.5266951 3.3082312-7.16 4.27h-.01c-5.4183424 1.9838188-11.1616129 2.930288-16.93 2.79-7.93 0-13.35-1.4-16.68-2.71-.02 0-.03-.01-.05-.02-1.52440036-.5489456-2.96233015-1.3133719-4.27-2.27l7.58-4.74.42-.26c1.39880174.76310821 2.8489646 1.4280446 4.34 1.99.0140001-.0004162.0278429.0030445.04.01 3.0633089 1.2298277 6.3203512 1.9069675 9.62 2 5.949217.1195932 11.7557901-1.8277117 16.43-5.51l-.5-.28-3.93-2.21 11.43-2.38h.01l8.51-1.77z" fill="#ffdc00"/><path id="Shape" d="m44.3 12.48-1.75-.98c-.04.04-.07.08-.11.12h-.01c-.1.1-.2.2-.33.32-2.0977988 1.8597134-4.5266951 3.3082312-7.16 4.27h-.01c-5.0228489 1.8449516-10.3340588 2.7808894-15.685 2.764.572.016 1.155.026 1.755.026 5.7683871.140288 11.5116576-.8061812 16.93-2.79h.01c2.3367792-.8732329 4.5202452-2.1116216 6.469-3.669z" fill="#fec108"/><path id="Shape" d="m54.591.715-6.861 12.007 2.27 1.278 8-14z" fill="#fec108"/><path id="Shape" d="m50 14v9l-4.45-2.5v-9z" fill="#ff9801"/><path id="Shape" d="m58 0v9l-8 14v-9z" fill="#ff9801"/><path id="Shape" d="m58 0v9l-8 14v-9z" fill="#f57c00"/><path id="Shape" d="m45.55 11.5v9c-1.69 1.76-8.45 7.5-24.55 7.5-15 0-21-5-21-5v-9s6 5 21 5c5.7683871.140288 11.5116576-.8061812 16.93-2.79h.01c2.7840715-1.0021391 5.3331935-2.5642846 7.49-4.59h.01c.04-.04.07-.08.11-.12z" fill="#ff9801"/></g><path id="Shape" d="m58.8.021-24 5c-.4082697.08490279-.7209949.41424073-.784671.82635472-.0636762.41211399.1350657.82047926.498671 1.02464528l3.108 1.747c-4.3095465 2.924955-9.414105 4.4543676-14.622 4.381-6.643 0-13.437-3.83-13.5-3.868-.31960908-.18269855-.71375376-.17501541-1.026.02l-8 5c-.29391261.1817749-.47314072.5024193-.474.848v9c-.00043298.2969186.13110234.5786753.359.769.257.212 6.453 5.231 21.641 5.231 15.1 0 22.262-5.011 24.712-7.262l3.8 2.134c.479092.2690369 1.0855063.1011343 1.358-.376l8-14c.189-.332.132.28.132-9.5-.0013145-.29987571-.1371364-.58333254-.3700304-.77224405-.232894-.18891151-.5382734-.26333431-.8319696-.20275595zm-49.764 11.136c1.8.943 7.821 3.843 13.964 3.843 6.1844306.1139269 12.2176461-1.9163428 17.075-5.746.2505304-.21141953.3815294-.53220539.3506094-.85856049-.0309199-.3263551-.2198319-.61683155-.5056094-.77743951l-2.105-1.182 19.278-4.016-6.466 11.224-3.587-2.016c-.3977564-.2235173-.8963698-.1494658-1.212.18-8.589 8.951-33.43 9-43 3.229zm38.514 3.052 2.45 1.377v6.7l-2.45-1.377zm-45.55 9.28v-6.608c9.411 5.521 32.572 6.226 43.55-2.173v6.376c-9.226 8.935-34.244 8.661-43.55 2.405zm50-3.255v-4.967l6-10.416v4.883z" fill="#000"/></g></svg>