<svg height="512" viewBox="0 0 60 60" width="512" xmlns="http://www.w3.org/2000/svg"><g id="Page-1" fill="none" fill-rule="evenodd"><g id="018---Cross" fill-rule="nonzero"><g id="Icons" transform="translate(1 1)"><path id="Shape" d="m47 0h7c2.209139 0 4 1.790861 4 4v50c0 2.209139-1.790861 4-4 4h-8" fill="#c81e1e"/><path id="Shape" d="m44 0h7c2.209139 0 4 1.790861 4 4v50c0 2.209139-1.790861 4-4 4h-8" fill="#f44335"/><rect id="Rectangle-path" fill="#f44335" height="58" rx="4" width="52"/><path id="Shape" d="m52 28.7v25.3c.0002919 1.0609554-.4210417 2.0785407-1.1712505 2.8287495s-1.7677941 1.1715424-2.8287495 1.1712505h-44c-1.06095541.0002919-2.07854066-.4210417-2.82874946-1.1712505-.75020879-.7502088-1.17154242-1.7677941-1.17125054-2.8287495v-15.17c6.14831204-4.1324252 12.9072618-7.274004 20.03-9.31 2.300215-.6588182 4.6377053-1.1797446 7-1.56 2.0035134-.3377689 4.0227218-.5747339 6.05-.71 6.3435695-.4265993 12.7155188.0617372 18.92 1.45z" fill="#c81e1e"/><path id="Shape" d="m43.78 16.56-10.7 10.69c-2.0272782.1352661-4.0464866.3722311-6.05.71-2.3622947.3802554-4.699785.9011818-7 1.56.2228091-.4756315.1227501-1.0399641-.25-1.41l-11.56-11.55c-.49002032-.4921592-.49002032-1.2878408 0-1.78l3.56-3.56c.4921592-.4900203 1.2878408-.4900203 1.78 0l11.55 11.56c.2960184.2956801.7186761.4265918 1.13.35.245164-.0535043.4703785-.1747737.65-.35l11.55-11.56c.4921592-.4900203 1.2878408-.4900203 1.78 0l3.56 3.56c.4900203.4921592.4900203 1.2878408 0 1.78z" fill="#f5f5f5"/><path id="Shape" d="m43.78 43.22-3.56 3.56c-.4921592.4900203-1.2878408.4900203-1.78 0l-11.55-11.56c-.4921592-.4900203-1.2878408-.4900203-1.78 0l-11.55 11.56c-.4921592.4900203-1.2878408.4900203-1.78 0l-3.56-3.56c-.49002032-.4921592-.49002032-1.2878408 0-1.78l11.56-11.55c.1044926-.107632.189129-.2328939.25-.37 2.300215-.6588182 4.6377053-1.1797446 7-1.56 2.0035134-.3377689 4.0227218-.5747339 6.05-.71l-.86.86c-.4900203.4921592-.4900203 1.2878408 0 1.78l11.56 11.55c.4900203.4921592.4900203 1.2878408 0 1.78z" fill="#cfd8dc"/></g><g id="Layer_10" fill="#000"><path id="Shape" d="m49 60h-44c-2.76007596-.0032511-4.99674886-2.239924-5-5v-50c.00325114-2.76007596 2.23992404-4.99674886 5-5h44c2.760076.00325114 4.9967489 2.23992404 5 5v50c-.0032511 2.760076-2.239924 4.9967489-5 5zm-44-58c-1.65610033.00181871-2.99818129 1.34389967-3 3v50c.00181871 1.6561003 1.34389967 2.9981813 3 3h44c1.6561003-.0018187 2.9981813-1.3438997 3-3v-50c-.0018187-1.65610033-1.3438997-2.99818129-3-3z"/><path id="Shape" d="m55 60h-8c-.5522847 0-1-.4477153-1-1s.4477153-1 1-1h8c1.6561003-.0018187 2.9981813-1.3438997 3-3v-50c-.0018187-1.65610033-1.3438997-2.99818129-3-3h-7c-.5522847 0-1-.44771525-1-1s.4477153-1 1-1h7c2.760076.00325114 4.9967489 2.23992404 5 5v50c-.0032511 2.760076-2.239924 4.9967489-5 5z"/><path id="Shape" d="m13.666 49.1445c-.598349.0010616-1.1725109-.2360946-1.5957-.6591l-3.5547-3.5562c-.42330023-.4232574-.66111142-.9973434-.66111142-1.59595s.23781119-1.1726926.66111142-1.59595l11.5544-11.5557c.0481442-.0480923.0751957-.1133505.0751957-.1814s-.0270515-.1333077-.0751957-.1814l-11.5544-11.5561c-.88148385-.8815872-.88148385-2.3108128 0-3.1924l3.5544-3.5552c.8823377-.8794749 2.3097869-.8796985 3.1924-.0005l11.556 11.5562c.0421103.0582561.1095903.0928004.1814725.0928994.0718821.0000989.1394569-.0342595.1817275-.0923994l11.5557-11.5562c.8823377-.8794749 2.3097869-.8796985 3.1924-.0005l3.5547 3.5562c.4233002.4232574.6611114.9973434.6611114 1.59595s-.2378112 1.1726926-.6611114 1.59595l-11.5544 11.5557c-.0481442.0480923-.0751957.1133505-.0751957.1814s.0270515.1333077.0751957.1814l11.5544 11.5561c.4233002.4232574.6611114.9973434.6611114 1.59595s-.2378112 1.1726926-.6611114 1.59595l-3.5544 3.5557c-.8824754.8793367-2.3099246.8793367-3.1924 0l-11.556-11.5557c-.0421103-.0582561-.1095903-.0928004-.1814725-.0928994-.0718821-.0000989-.1394569.0342595-.1817275.0923994l-11.5557 11.5562c-.4233956.423369-.997948.6607177-1.5967.6596zm.001-36.29c-.0685379-.0001862-.1342974.0270755-.1826.0757l-3.5544 3.5547c-.10025373.1005072-.10025373.2631928 0 .3637l11.5544 11.5557c.4233002.4232574.6611114.9973434.6611114 1.59595s-.2378112 1.1726926-.6611114 1.59595l-11.5544 11.5552c-.1002514.1003129-.1002514.2628871 0 .3632l3.5547 3.5562c.1007689.1000924.2634311.1000924.3642 0l11.5554-11.5557c.8929578-.8528176 2.2987095-.8525974 3.1914.0005l11.5557 11.5552c.1007689.1000924.2634311.1000924.3642 0l3.5544-3.5557c.1002514-.1003129.1002514-.2628871 0-.3632l-11.5544-11.5562c-.4233002-.4232574-.6611114-.9973434-.6611114-1.59595s.2378112-1.1726926.6611114-1.59595l11.5544-11.5552c.1002514-.1003129.1002514-.2628871 0-.3632l-3.5547-3.5562c-.1007935-.1002282-.2636821-.1000046-.3642.0005l-11.5554 11.5552c-.8928241.8529575-2.2985759.8529575-3.1914 0l-11.5557-11.5557c-.0482027-.0481018-.1135025-.0751422-.1816-.0752z"/></g></g></g></svg>