<?xml version="1.0" encoding="iso-8859-1"?>
<!-- Generator: Adobe Illustrator 19.0.0, SVG Export Plug-In . SVG Version: 6.00 Build 0)  -->
<svg version="1.1" id="Capa_1" xmlns="http://www.w3.org/2000/svg" xmlns:xlink="http://www.w3.org/1999/xlink" x="0px" y="0px"
	 viewBox="0 0 512 512" style="enable-background:new 0 0 512 512;" xml:space="preserve">
<g>
	<g transform="translate(1 1)">
		<path style="fill:#00838F;" d="M502.467,33.133v366.933H7.533l0-366.933c-0.009-6.792,2.685-13.309,7.488-18.112
			s11.32-7.497,18.112-7.488h443.733c6.792-0.009,13.309,2.685,18.112,7.488S502.476,26.341,502.467,33.133z"/>
		<path style="fill:#00BCD4;" d="M476.867,33.133v366.933H7.533l0-366.933c-0.009-6.792,2.685-13.309,7.488-18.112
			s11.32-7.497,18.112-7.488h418.133c6.792-0.009,13.309,2.685,18.112,7.488S476.876,26.341,476.867,33.133z"/>
		<rect x="212.333" y="408.6" style="fill:#37474F;" width="85.333" height="85.333"/>
		<g>
			<rect x="212.333" y="408.6" style="fill:#607D8B;" width="59.733" height="85.333"/>
			<path style="fill:#607D8B;" d="M348.867,502.467H161.133c0.016-9.051,3.604-17.729,9.984-24.149
				c0.499-0.528,1.042-1.013,1.621-1.451c6.223-5.488,14.231-8.522,22.528-8.533h119.467c9.054-0.003,17.737,3.593,24.139,9.995
				C345.274,484.73,348.869,493.413,348.867,502.467z"/>
		</g>
		<path style="fill:#CFD8DC;" d="M161.133,502.467l1.109-8.533h-1.109c0.016-9.051,3.604-17.729,9.984-24.149
			c0.499-0.528,1.042-1.013,1.621-1.451h116.395c2.882-0.026,5.754,0.347,8.533,1.109c12.029,3.069,21.422,12.462,24.491,24.491
			c0.762,2.78,1.135,5.651,1.111,8.533H161.133z"/>
		<path style="fill:#607D8B;" d="M502.467,383v25.6c0.009,6.792-2.685,13.309-7.488,18.112c-4.803,4.803-11.32,7.497-18.112,7.488
			H33.133c-6.792,0.009-13.309-2.685-18.112-7.488c-4.803-4.803-7.497-11.32-7.488-18.112l0-25.6H502.467z"/>
		<path style="fill:#CFD8DC;" d="M476.867,383v25.6c0.009,6.792-2.685,13.309-7.488,18.112c-4.803,4.803-11.32,7.497-18.112,7.488
			H33.133c-6.792,0.009-13.309-2.685-18.112-7.488c-4.803-4.803-7.497-11.32-7.488-18.112l0-25.6H476.867z"/>
		<polygon style="fill:#3F51B5;" points="246.467,297.667 185.965,356.632 161.901,332.568 212.333,280.6 		"/>
		<path style="fill:#CFD8DC;" d="M185.965,368.749l-16.299,16.299l-36.181-36.181l16.299-16.299c3.354-3.327,8.763-3.327,12.117,0
			l24.064,24.064C189.294,359.986,189.294,365.396,185.965,368.749z"/>
		<path style="fill:#3F51B5;" d="M169.667,385.048L54.808,499.992c-3.353,3.328-8.764,3.328-12.117,0l-24.149-24.149
			c-3.327-3.354-3.327-8.764,0-12.117l114.944-114.859L169.667,385.048z"/>
		<path style="fill:#009688;" d="M356.547,313.88c-46.657,46.656-122.302,46.656-168.958-0.001s-46.656-122.302,0-168.958
			s122.301-46.657,168.958-0.001c22.5,22.355,35.153,52.762,35.153,84.48S379.047,291.525,356.547,313.88z"/>
	</g>
	<g>
		<path d="M110.933,85.333H128c9.421-0.011,17.056-7.645,17.067-17.067V51.2c-0.011-9.421-7.645-17.056-17.067-17.067h-17.067
			c-9.421,0.011-17.056,7.645-17.067,17.067v17.067C93.877,77.688,101.512,85.323,110.933,85.333z M110.933,51.2H128l0.009,17.067
			h-17.075V51.2z"/>
		<path d="M76.8,162.133h17.067c9.421-0.011,17.056-7.645,17.067-17.067V128c-0.011-9.421-7.645-17.056-17.067-17.067H76.8
			c-9.421,0.011-17.056,7.645-17.067,17.067v17.067C59.744,154.488,67.379,162.123,76.8,162.133z M76.8,128h17.067l0.009,17.067
			H76.8V128z"/>
		<path d="M68.267,85.333c2.263,0.001,4.434-0.898,6.035-2.499s2.499-3.771,2.499-6.035V42.667c0-4.713-3.821-8.533-8.533-8.533
			s-8.533,3.821-8.533,8.533V76.8c-0.001,2.263,0.898,4.434,2.499,6.035C63.832,84.435,66.003,85.334,68.267,85.333z"/>
		<path d="M68.267,238.933c2.263,0.001,4.434-0.898,6.035-2.499c1.6-1.6,2.499-3.771,2.499-6.035v-34.133
			c0-4.713-3.821-8.533-8.533-8.533s-8.533,3.821-8.533,8.533V230.4c-0.001,2.263,0.898,4.434,2.499,6.035
			C63.832,238.035,66.003,238.934,68.267,238.933z"/>
		<path d="M102.4,187.733c-2.263-0.001-4.434,0.898-6.035,2.499c-1.6,1.6-2.499,3.771-2.499,6.035V230.4
			c0,4.713,3.821,8.533,8.533,8.533c4.713,0,8.533-3.821,8.533-8.533v-34.133c0.001-2.263-0.898-4.434-2.499-6.035
			C106.834,188.632,104.663,187.733,102.4,187.733z"/>
		<path d="M128,264.533c-2.263-0.001-4.434,0.898-6.035,2.499s-2.499,3.771-2.499,6.035V307.2c0,4.713,3.82,8.533,8.533,8.533
			s8.533-3.82,8.533-8.533v-34.133c0.001-2.263-0.898-4.434-2.499-6.035C132.434,265.432,130.263,264.533,128,264.533z"/>
		<path d="M136.533,110.933c-2.263-0.001-4.434,0.898-6.035,2.499c-1.6,1.6-2.499,3.771-2.499,6.035V153.6
			c0,4.713,3.821,8.533,8.533,8.533s8.533-3.821,8.533-8.533v-34.133c0.001-2.263-0.898-4.434-2.499-6.035
			C140.968,111.832,138.797,110.933,136.533,110.933z"/>
		<path d="M170.667,85.333c2.263,0.001,4.434-0.898,6.035-2.499c1.6-1.6,2.499-3.771,2.499-6.035V42.667
			c0-4.713-3.821-8.533-8.533-8.533c-4.713,0-8.533,3.821-8.533,8.533V76.8c-0.001,2.263,0.898,4.434,2.499,6.035
			C166.232,84.435,168.403,85.334,170.667,85.333z"/>
		<path d="M213.333,221.867c2.263,0.001,4.434-0.898,6.035-2.499c1.6-1.6,2.499-3.771,2.499-6.035v-51.2
			c0-4.713-3.821-8.533-8.533-8.533s-8.533,3.821-8.533,8.533v51.2c-0.001,2.263,0.898,4.434,2.499,6.035
			C208.899,220.968,211.07,221.867,213.333,221.867z"/>
		<path d="M332.8,221.867c2.263,0.001,4.434-0.898,6.035-2.499c1.6-1.6,2.499-3.771,2.499-6.035v-51.2
			c0-4.713-3.82-8.533-8.533-8.533s-8.533,3.821-8.533,8.533v51.2c-0.001,2.263,0.898,4.434,2.499,6.035
			C328.366,220.968,330.537,221.867,332.8,221.867z"/>
		<path d="M204.8,85.333c2.263,0.001,4.434-0.898,6.035-2.499s2.499-3.771,2.499-6.035V42.667c0-4.713-3.821-8.533-8.533-8.533
			c-4.713,0-8.533,3.821-8.533,8.533V76.8c-0.001,2.263,0.898,4.434,2.499,6.035S202.537,85.334,204.8,85.333z"/>
		<path d="M315.733,85.333H332.8c9.421-0.011,17.056-7.645,17.067-17.067V51.2c-0.011-9.421-7.645-17.056-17.067-17.067h-17.067
			c-9.421,0.011-17.056,7.645-17.067,17.067v17.067C298.677,77.688,306.312,85.323,315.733,85.333z M315.733,51.2H332.8
			l0.009,17.067h-17.075V51.2z"/>
		<path d="M409.6,281.6v17.067c0.011,9.421,7.645,17.056,17.067,17.067h17.067c9.421-0.011,17.056-7.645,17.067-17.067V281.6
			c-0.011-9.421-7.645-17.056-17.067-17.067h-17.067C417.245,264.544,409.611,272.179,409.6,281.6z M426.667,281.6h17.067
			l0.009,17.067h-17.075V281.6z"/>
		<path d="M68.267,315.733h17.067c9.421-0.011,17.056-7.645,17.067-17.067V281.6c-0.011-9.421-7.645-17.056-17.067-17.067H68.267
			c-9.421,0.011-17.056,7.645-17.067,17.067v17.067C51.211,308.088,58.845,315.723,68.267,315.733z M68.267,281.6h17.067
			l0.009,17.067H68.267V281.6z"/>
		<path d="M247.467,85.333h17.067c9.421-0.011,17.056-7.645,17.067-17.067V51.2c-0.011-9.421-7.645-17.056-17.067-17.067h-17.067
			c-9.421,0.011-17.056,7.645-17.067,17.067v17.067C230.411,77.688,238.045,85.323,247.467,85.333z M247.467,51.2h17.067
			l0.009,17.067h-17.075V51.2z"/>
		<path d="M256,221.867h34.133c9.421-0.011,17.056-7.645,17.067-17.067v-34.133c-0.011-9.421-7.645-17.056-17.067-17.067H256
			c-9.421,0.011-17.056,7.645-17.067,17.067V204.8C238.944,214.221,246.579,221.856,256,221.867z M256,170.667h34.133l0.009,34.133
			H256V170.667z"/>
		<path d="M298.667,238.933c-2.263-0.001-4.434,0.898-6.035,2.499c-1.6,1.6-2.499,3.771-2.499,6.035v51.2
			c0,4.713,3.82,8.533,8.533,8.533s8.533-3.82,8.533-8.533v-51.2c0.001-2.263-0.898-4.434-2.499-6.035
			C303.101,239.832,300.93,238.933,298.667,238.933z"/>
		<path d="M332.8,307.2c2.263,0.001,4.434-0.898,6.035-2.499c1.6-1.6,2.499-3.771,2.499-6.035v-51.2c0-4.713-3.82-8.533-8.533-8.533
			s-8.533,3.821-8.533,8.533v51.2c-0.001,2.263,0.898,4.434,2.499,6.035C328.366,306.302,330.537,307.201,332.8,307.2z"/>
		<path d="M273.067,256c-0.011-9.421-7.645-17.056-17.067-17.067h-34.133c-9.421,0.011-17.056,7.645-17.067,17.067v34.133
			c0.011,9.421,7.645,17.056,17.067,17.067H256c9.421-0.011,17.056-7.645,17.067-17.067V256z M221.867,290.133V256H256l0.009,34.133
			H221.867z"/>
		<path d="M375.467,85.333c2.263,0.001,4.434-0.898,6.035-2.499s2.499-3.771,2.499-6.035V42.667c0-4.713-3.821-8.533-8.533-8.533
			c-4.713,0-8.533,3.821-8.533,8.533V76.8c-0.001,2.263,0.898,4.434,2.499,6.035C371.033,84.435,373.203,85.334,375.467,85.333z"/>
		<path d="M409.6,85.333c2.263,0.001,4.434-0.898,6.035-2.499s2.499-3.771,2.499-6.035V42.667c0-4.713-3.821-8.533-8.533-8.533
			c-4.713,0-8.533,3.821-8.533,8.533V76.8c-0.001,2.263,0.898,4.434,2.499,6.035S407.337,85.334,409.6,85.333z"/>
		<path d="M443.733,85.333c2.263,0.001,4.434-0.898,6.035-2.499c1.6-1.6,2.499-3.771,2.499-6.035V42.667
			c0-4.713-3.82-8.533-8.533-8.533s-8.533,3.821-8.533,8.533V76.8c-0.001,2.263,0.898,4.434,2.499,6.035
			S441.47,85.334,443.733,85.333z"/>
		<path d="M409.6,162.133c2.263,0.001,4.434-0.898,6.035-2.499c1.6-1.6,2.499-3.771,2.499-6.035v-34.133
			c0-4.713-3.821-8.533-8.533-8.533c-4.713,0-8.533,3.82-8.533,8.533V153.6c-0.001,2.263,0.898,4.434,2.499,6.035
			C405.166,161.235,407.337,162.134,409.6,162.133z"/>
		<path d="M443.733,162.133c2.263,0.001,4.434-0.898,6.035-2.499c1.6-1.6,2.499-3.771,2.499-6.035v-34.133
			c0-4.713-3.82-8.533-8.533-8.533s-8.533,3.82-8.533,8.533V153.6c-0.001,2.263,0.898,4.434,2.499,6.035
			C439.299,161.235,441.47,162.134,443.733,162.133z"/>
		<path d="M443.733,238.933c2.263,0.001,4.434-0.898,6.035-2.499c1.6-1.6,2.499-3.771,2.499-6.035v-34.133
			c0-4.713-3.82-8.533-8.533-8.533s-8.533,3.821-8.533,8.533V230.4c-0.001,2.263,0.898,4.434,2.499,6.035
			C439.299,238.035,441.47,238.934,443.733,238.933z"/>
		<path d="M477.867,0H34.133C15.29,0.02,0.02,15.29,0,34.133V409.6c0.045,16.843,12.386,31.128,29.044,33.619l-15.511,15.51
			c-6.658,6.668-6.658,17.469,0,24.138L37.667,507c6.668,6.656,17.466,6.656,24.133,0l63.269-63.267H204.8V460.8h-8.533
			c-23.553,0.028-42.639,19.114-42.667,42.667c-0.001,2.263,0.898,4.434,2.499,6.035c1.6,1.6,3.771,2.499,6.035,2.499h187.733
			c2.263,0.001,4.434-0.898,6.035-2.499c1.6-1.6,2.499-3.771,2.499-6.035c-0.028-23.553-19.114-42.639-42.667-42.667H307.2v-17.067
			h170.667c18.843-0.02,34.113-15.29,34.133-34.133V34.133C511.98,15.29,496.71,0.02,477.867,0z M34.133,17.067h443.733
			c9.421,0.011,17.056,7.645,17.067,17.067v341.333H193.282c4.1-4.305,5.652-10.439,4.093-16.176l15.744-15.747
			c58.165,30.951,130.318,12.83,166.958-41.93s25.861-128.369-24.94-170.326s-125.121-38.63-171.97,7.698
			s-51.008,120.606-9.622,171.873l-12.302,12.299c-5.873-1.608-12.158,0.048-16.476,4.342l-47.968,47.967H17.067V34.133
			C17.077,24.712,24.712,17.077,34.133,17.067z M194.625,308.842c-37.423-37.423-43.199-96.069-13.796-140.073
			s85.795-61.111,134.69-40.858s76.674,72.225,66.349,124.131c-10.325,51.907-55.878,89.291-108.802,89.291
			C243.63,341.412,215.385,329.712,194.625,308.842z M185.217,323.319c4.133,3.906,8.519,7.535,13.13,10.864l-11.38,11.382
			l-11.999-11.999L185.217,323.319z M156.833,339.567l24.133,24.137l-10.3,10.299l-24.134-24.136L156.833,339.567z M34.133,426.667
			c-9.421-0.011-17.056-7.645-17.067-17.067v-17.067h62.665l-34.134,34.133H34.133z M49.733,494.933L25.6,470.8l80.726-80.726
			l0.099-0.099l28.041-28.041L158.6,386.07l-43.053,43.052l-0.11,0.11L49.733,494.933z M339.875,494.933h-167.75
			c3.63-10.22,13.296-17.053,24.142-17.067h119.467C326.579,477.88,336.245,484.713,339.875,494.933z M290.133,460.8h-68.267
			v-17.067h68.267V460.8z M477.867,426.667H142.136l34.134-34.133h318.663V409.6C494.923,419.021,487.288,426.656,477.867,426.667z"
			/>
	</g>
</g>
<g>
</g>
<g>
</g>
<g>
</g>
<g>
</g>
<g>
</g>
<g>
</g>
<g>
</g>
<g>
</g>
<g>
</g>
<g>
</g>
<g>
</g>
<g>
</g>
<g>
</g>
<g>
</g>
<g>
</g>
</svg>
