<svg height="512pt" viewBox="0 0 512 512" width="512pt" xmlns="http://www.w3.org/2000/svg"><path d="m197.332031 373.332031c0-47.015625 18.304688-91.199219 51.5625-124.4375 23.445313-23.445312 52.394531-39.292969 83.90625-46.695312v-145.921875c0-25.195313-20.417969-45.609375-45.589843-45.609375h-233.089844c-25.066406 0-45.585938 20.519531-45.585938 45.609375v314.132812c0 25.089844 20.519532 45.609375 45.585938 45.609375h148.589844c-3.414063-13.820312-5.378907-28.09375-5.378907-42.6875zm0 0" fill="#eceff1"/><path d="m144 149.332031c0 17.675781-14.328125 32-32 32s-32-14.324219-32-32c0-17.671875 14.328125-32 32-32s32 14.328125 32 32zm0 0" fill="#ffc107"/><path d="m505.066406 373.332031c0 72.753907-58.980468 131.734375-131.734375 131.734375-72.753906 0-131.730469-58.980468-131.730469-131.734375 0-72.753906 58.976563-131.730469 131.730469-131.730469 72.753907 0 131.734375 58.976563 131.734375 131.730469zm0 0" fill="#f44336"/><path d="m197.332031 373.332031c0-47.015625 18.304688-91.199219 51.5625-124.4375 14.765625-14.78125 31.789063-26.410156 50.175781-34.984375l-22.953124-22.976562c-13.78125-13.78125-36.480469-13.78125-50.261719 0l-96.46875 96.46875-25.535157-25.535156c-13.78125-13.78125-36.480468-13.78125-50.261718 0l-45.804688 45.800781v67.074219c0 25.128906 20.480469 45.609374 45.613282 45.609374h150.421874c-4.183593-15.125-6.488281-30.890624-6.488281-47.019531zm0 0" fill="#4caf50"/><path d="m373.332031 512c-37.035156 0-71.847656-14.441406-98.046875-40.617188-26.195312-26.175781-40.617187-61.015624-40.617187-98.050781 0-37.035156 14.441406-71.847656 40.617187-98.046875 26.199219-26.195312 61.011719-40.617187 98.046875-40.617187 37.035157 0 71.851563 14.421875 98.050781 40.617187 26.175782 26.199219 40.617188 61.011719 40.617188 98.046875 0 37.035157-14.421875 71.851563-40.617188 98.050781-26.199218 26.195313-61.015624 40.617188-98.050781 40.617188zm0-245.332031c-28.480469 0-55.273437 11.113281-75.410156 31.253906-20.140625 20.136719-31.253906 46.929687-31.253906 75.410156s11.113281 55.277344 31.253906 75.414063c20.136719 20.140625 46.929687 31.253906 75.410156 31.253906s55.277344-11.113281 75.414063-31.253906c20.140625-20.136719 31.253906-46.933594 31.253906-75.414063s-11.113281-55.273437-31.253906-75.410156c-20.136719-20.140625-46.933594-31.253906-75.414063-31.253906zm0 0"/><path d="m331.863281 430.804688c-4.097656 0-8.195312-1.558594-11.308593-4.691407-6.25-6.25-6.25-16.386719 0-22.636719l82.964843-82.964843c6.25-6.25 16.382813-6.25 22.636719 0 6.25 6.25 6.25 16.382812 0 22.636719l-82.96875 82.964843c-3.15625 3.132813-7.230469 4.691407-11.324219 4.691407zm0 0"/><path d="m414.804688 430.804688c-4.09375 0-8.191407-1.558594-11.304688-4.691407l-82.964844-82.964843c-6.253906-6.253907-6.253906-16.386719 0-22.636719 6.25-6.25 16.382813-6.25 22.632813 0l82.964843 82.964843c6.25 6.25 6.25 16.386719 0 22.636719-3.136718 3.132813-7.210937 4.691407-11.328124 4.691407zm0 0"/><path d="m106.667969 192c-23.53125 0-42.667969-19.136719-42.667969-42.667969s19.136719-42.664062 42.667969-42.664062 42.664062 19.132812 42.664062 42.664062-19.132812 42.667969-42.664062 42.667969zm0-53.332031c-5.867188 0-10.667969 4.777343-10.667969 10.664062 0 5.890625 4.800781 10.667969 10.667969 10.667969 5.867187 0 10.664062-4.777344 10.664062-10.667969 0-5.886719-4.796875-10.664062-10.664062-10.664062zm0 0"/><path d="m16 330.667969c-4.097656 0-8.191406-1.558594-11.308594-4.695313-6.25-6.25-6.25-16.382812 0-22.632812l43.523438-43.519532c14.078125-14.082031 38.824218-14.101562 52.90625 0l26.878906 26.878907 101.546875-101.546875c14.078125-14.082032 38.828125-14.101563 52.90625 0l11.519531 11.519531c6.25 6.25 6.25 16.382813 0 22.636719-6.25 6.25-16.382812 6.25-22.632812 0l-11.519532-11.523438c-2.710937-2.707031-4.949218-2.6875-7.660156 0l-112.851562 112.855469c-6.253906 6.25-16.386719 6.25-22.636719 0l-38.1875-38.1875c-2.707031-2.710937-4.949219-2.710937-7.65625 0l-43.519531 43.519531c-3.117188 3.136719-7.210938 4.695313-11.308594 4.695313zm0 0"/><path d="m197.121094 426.667969h-138.453125c-32.363281 0-58.667969-26.304688-58.667969-58.667969v-309.332031c0-32.363281 26.304688-58.667969 58.667969-58.667969h224c32.363281 0 58.664062 26.304688 58.664062 58.667969v138.453125c0 8.832031-7.167969 16-16 16s-16-7.167969-16-16v-138.453125c0-14.699219-11.964843-26.667969-26.664062-26.667969h-224c-14.699219 0-26.667969 11.96875-26.667969 26.667969v309.332031c0 14.699219 11.96875 26.667969 26.667969 26.667969h138.453125c8.832031 0 16 7.167969 16 16s-7.167969 16-16 16zm0 0"/></svg>