<svg height="512" viewBox="0 0 54 60" width="512" xmlns="http://www.w3.org/2000/svg"><g id="Page-1" fill="none" fill-rule="evenodd"><g id="034---Trash" fill-rule="nonzero"><path id="Shape" d="m41.38 59h-28.76c-2.0542613.0000258-3.77457387-1.5560358-3.98-3.6l-3.64-36.4h44l-3.64 36.4c-.2054261 2.0439642-1.9257387 3.6000258-3.98 3.6z" fill="#009688"/><path id="Shape" d="m46 19-3.64 36.4c-.2054261 2.0439642-1.9257387 3.6000258-3.98 3.6h3c2.0542613.0000258 3.7745739-1.5560358 3.98-3.6l3.64-36.4z" fill="#00695c"/><rect id="Rectangle-path" fill="#00bcd4" height="11" rx="3" width="52" x="1" y="8"/><path id="Shape" d="m50 8h-3c1.6568542 0 3 1.34314575 3 3v5c0 1.6568542-1.3431458 3-3 3h3c1.6568542 0 3-1.3431458 3-3v-5c0-1.65685425-1.3431458-3-3-3z" fill="#00838f"/><path id="Shape" d="m38 8h-22v-4c0-1.65685425 1.3431458-3 3-3h16c1.6568542 0 3 1.34314575 3 3z" fill="#009688"/><path id="Shape" d="m35 1h-3c1.6568542 0 3 1.34314575 3 3v4h3v-4c0-1.65685425-1.3431458-3-3-3z" fill="#00695c"/><path id="Shape" d="m12 24h-2c-.55228475 0-1-.4477153-1-1s.44771525-1 1-1h2c.5522847 0 1 .4477153 1 1s-.4477153 1-1 1z" fill="#f5f5f5"/><path id="Shape" d="m35 24h-19c-.5522847 0-1-.4477153-1-1s.4477153-1 1-1h19c.5522847 0 1 .4477153 1 1s-.4477153 1-1 1z" fill="#f5f5f5"/><g fill="#000"><path id="Shape" d="m19 2h16c1.1045695 0 2 .8954305 2 2 0 .55228475.4477153 1 1 1s1-.44771525 1-1c-.0027548-2.2079969-1.7920031-3.99724517-4-4h-16c-2.209139 0-4 1.790861-4 4v3h-11c-2.209139 0-4 1.790861-4 4v5c0 2.209139 1.790861 4 4 4h.1l3.549 35.5c.24990094 2.5564239 2.4013946 4.5044564 4.97 4.5h28.76c2.5706994.0075071 4.7253673-1.9414388 4.975-4.5l3.546-35.5h.1c2.209139 0 4-1.790861 4-4v-5c-.0027548-2.2079969-1.7920031-3.99724517-4-4h-33v-3c0-1.1045695.8954305-2 2-2zm25.364 53.3c-.1500492 1.535001-1.4426885 2.7042224-2.985 2.7h-28.76c-1.5426943.0047391-2.83591495-1.1646165-2.986-2.7l-3.533-35.3h41.79zm-6.364-46.3h12c1.1045695 0 2 .8954305 2 2v5c0 1.1045695-.8954305 2-2 2h-46c-1.1045695 0-2-.8954305-2-2v-5c0-1.1045695.8954305-2 2-2z"/><path id="Shape" d="m27 55c.5522847 0 1-.4477153 1-1v-26c0-.5522847-.4477153-1-1-1s-1 .4477153-1 1v26c0 .5522847.4477153 1 1 1z"/><path id="Shape" d="m20.879 51c-.5516825.0221996-.9809795.4873087-.959 1.039l.08 2c.0209587.5369973.462594.9614088 1 .961h.041c.2656557-.0106455.5161363-.1266421.6960877-.3223556.1799513-.1957135.2745579-.4550307.2629123-.7206444l-.08-2c-.0095837-.2654974-.1250506-.5161097-.320633-.6959102s-.4550021-.2738246-.720367-.2610898z"/><path id="Shape" d="m20.768 49h.039c.5516632-.0211375.9818313-.4853251.961-1.037l-.77-20c-.0058492-.2667529-.1195565-.5197474-.3151588-.7012166-.1956024-.1814692-.4563988-.275919-.7228412-.2617834-.550862.0216787-.9802728.4850845-.96 1.036l.77 20c.0193585.5374025.4602494.9632731.998.964z"/><path id="Shape" d="m13.775 52.112.23 2c.0570569.5062348.4855604.888658.995.888.0387435-.0000293.0774603-.0020319.116-.006.2635011-.0303479.5041507-.1641383.6689991-.3719335.1648483-.2077952.240389-.4725701.2100009-.7360665l-.23-2c-.0409069-.3549434-.2680665-.661101-.5959099-.8031463-.3278434-.1420452-.7065635-.0983981-.9935.1145s-.438497.5627029-.3975901.9176463z"/><path id="Shape" d="m14.307 49c.0390761-.0000298.0781258-.0020323.117-.006.5483132-.0637022.9413041-.5596407.878-1.108l-2.31-20c-.0312086-.362842-.2572051-.6800302-.5899628-.8280185-.3327578-.1479884-.7196589-.1033759-1.0100039.1164606-.2903449.2198366-.4382223.5801351-.3860333.9405579l2.31 20c.0582911.503529.4841096.8838008.991.885z"/><path id="Shape" d="m32.959 55h.041c.5370335.0004298.9785188-.4233961 1-.96l1-26c.0137548-.3572656-.1641343-.6947307-.466658-.8852755-.3025237-.1905447-.6837216-.2052208-1-.0385-.3162785.1667209-.5195873.4895099-.533342.8467755l-1 26c-.0208463.5509242.4081291 1.0147902.959 1.037z"/><path id="Shape" d="m38.884 54.991c.0384911.0049452.0772068.007949.116.009.5072723-.0006927.9336641-.3810927.992-.885l.23-2c.0409069-.3549434-.1106536-.7047481-.3975901-.9176462s-.6656566-.2565453-.9935-.1145c-.3278434.1420452-.555003.4482028-.5959099.8031462l-.23 2c-.0615002.5476057.3315918 1.0417658.879 1.105z"/><path id="Shape" d="m39.574 48.991c.0384884.0049708.0772054.0079747.116.009.5072723-.0006927.9336641-.3810927.992-.885l2.31-20c.052189-.3604228-.0956884-.7207213-.3860333-.9405579-.290345-.2198365-.6772461-.264449-1.0100039-.1164606-.3327577.1479883-.5587542.4651765-.5899628.8280185l-2.311 20c-.0615002.5476057.3315918 1.0417658.879 1.105z"/></g></g></g></svg>