<?xml version="1.0" encoding="iso-8859-1"?>
<!-- Generator: Adobe Illustrator 19.0.0, SVG Export Plug-In . SVG Version: 6.00 Build 0)  -->
<svg version="1.1" id="Layer_1" xmlns="http://www.w3.org/2000/svg" xmlns:xlink="http://www.w3.org/1999/xlink" x="0px" y="0px"
	 viewBox="0 0 512 512" style="enable-background:new 0 0 512 512;" xml:space="preserve">
<g transform="translate(0 1)">
	<polygon style="fill:#00DA6C;" points="34.712,502.322 477.288,502.322 477.288,7.678 34.712,7.678 	"/>
	<polygon style="fill:#00AD55;" points="477.288,502.322 503.322,502.322 503.322,7.678 477.288,7.678 	"/>
	<polygon style="fill:#FFFFFF;" points="8.678,502.322 34.712,502.322 34.712,7.678 8.678,7.678 	"/>
	<path id="SVGCleanerId_0" d="M512,511H0V120.492c0-5.207,3.471-8.678,8.678-8.678s8.678,3.471,8.678,8.678v373.153h477.288v-78.102
		c0-5.207,3.471-8.678,8.678-8.678c5.207,0,8.678,3.471,8.678,8.678V511z"/>
	<path id="SVGCleanerId_1" d="M503.322,346.119c-5.207,0-8.678-3.471-8.678-8.678V16.356H17.356v34.712
		c0,5.207-3.471,8.678-8.678,8.678S0,56.275,0,51.068V-1h512v338.441C512,342.647,508.529,346.119,503.322,346.119z"/>
	<path id="SVGCleanerId_2" d="M17.356,85.78c0-5.207-3.471-8.678-8.678-8.678S0,80.573,0,85.78c0,5.207,3.471,8.678,8.678,8.678
		S17.356,90.986,17.356,85.78"/>
	<path id="SVGCleanerId_3" d="M503.322,389.508c-5.207,0-8.678-3.471-8.678-8.678v-8.678c0-5.207,3.471-8.678,8.678-8.678
		c5.207,0,8.678,3.471,8.678,8.678v8.678C512,386.037,508.529,389.508,503.322,389.508z"/>
	<path id="SVGCleanerId_4" d="M78.102,146.525c-5.207,0-8.678-3.471-8.678-8.678v-34.712c0-5.207,3.471-8.678,8.678-8.678
		c5.207,0,8.678,3.471,8.678,8.678v34.712C86.78,143.054,83.308,146.525,78.102,146.525z"/>
	<path id="SVGCleanerId_5" d="M321.085,111.814H78.102c-5.207,0-8.678-3.471-8.678-8.678c0-5.207,3.471-8.678,8.678-8.678h242.983
		c5.207,0,8.678,3.471,8.678,8.678C329.763,108.342,326.292,111.814,321.085,111.814z"/>
	<path id="SVGCleanerId_6" d="M321.085,146.525c-5.207,0-8.678-3.471-8.678-8.678v-34.712c0-5.207,3.471-8.678,8.678-8.678
		s8.678,3.471,8.678,8.678v34.712C329.763,143.054,326.292,146.525,321.085,146.525z"/>
	<path id="SVGCleanerId_7" d="M295.051,259.339c-5.207,0-8.678-3.471-8.678-8.678v-17.356c0-5.207,3.471-8.678,8.678-8.678
		c5.207,0,8.678,3.471,8.678,8.678v17.356C303.729,255.868,300.258,259.339,295.051,259.339z"/>
	<path id="SVGCleanerId_8" d="M433.898,259.339c-5.207,0-8.678-3.471-8.678-8.678v-17.356c0-5.207,3.471-8.678,8.678-8.678
		c5.207,0,8.678,3.471,8.678,8.678v17.356C442.576,255.868,439.105,259.339,433.898,259.339z"/>
	<path id="SVGCleanerId_9" d="M199.593,424.22c-5.207,0-8.678-3.471-8.678-8.678V103.136c0-5.207,3.471-8.678,8.678-8.678
		c5.207,0,8.678,3.471,8.678,8.678v312.407C208.271,420.749,204.8,424.22,199.593,424.22z"/>
	<path id="SVGCleanerId_10" d="M251.661,424.22H147.525c-5.207,0-8.678-3.471-8.678-8.678c0-5.207,3.471-8.678,8.678-8.678h104.136
		c5.207,0,8.678,3.471,8.678,8.678C260.339,420.749,256.868,424.22,251.661,424.22z"/>
	<path id="SVGCleanerId_11" d="M364.475,424.22c-5.207,0-8.678-3.471-8.678-8.678V233.305c0-5.207,3.471-8.678,8.678-8.678
		s8.678,3.471,8.678,8.678v182.237C373.153,420.749,369.681,424.22,364.475,424.22z"/>
	<path id="SVGCleanerId_12" d="M399.186,424.22h-69.424c-5.207,0-8.678-3.471-8.678-8.678c0-5.207,3.471-8.678,8.678-8.678h69.424
		c5.207,0,8.678,3.471,8.678,8.678C407.864,420.749,404.393,424.22,399.186,424.22z"/>
	<path id="SVGCleanerId_13" d="M433.898,241.983H295.051c-5.207,0-8.678-3.471-8.678-8.678s3.471-8.678,8.678-8.678h138.847
		c5.207,0,8.678,3.471,8.678,8.678S439.105,241.983,433.898,241.983z"/>
	<polygon style="fill:#00DA6C;" points="34.712,502.322 477.288,502.322 477.288,7.678 34.712,7.678 	"/>
	<polygon style="fill:#00AD55;" points="477.288,502.322 503.322,502.322 503.322,7.678 477.288,7.678 	"/>
	<polygon style="fill:#FFFFFF;" points="8.678,502.322 34.712,502.322 34.712,7.678 8.678,7.678 	"/>
	<g>
		<path id="SVGCleanerId_0_1_" d="M512,511H0V120.492c0-5.207,3.471-8.678,8.678-8.678s8.678,3.471,8.678,8.678v373.153h477.288
			v-78.102c0-5.207,3.471-8.678,8.678-8.678c5.207,0,8.678,3.471,8.678,8.678V511z"/>
	</g>
	<g>
		<path id="SVGCleanerId_1_1_" d="M503.322,346.119c-5.207,0-8.678-3.471-8.678-8.678V16.356H17.356v34.712
			c0,5.207-3.471,8.678-8.678,8.678S0,56.275,0,51.068V-1h512v338.441C512,342.647,508.529,346.119,503.322,346.119z"/>
	</g>
	<g>
		<path id="SVGCleanerId_2_1_" d="M17.356,85.78c0-5.207-3.471-8.678-8.678-8.678S0,80.573,0,85.78c0,5.207,3.471,8.678,8.678,8.678
			S17.356,90.986,17.356,85.78"/>
	</g>
	<g>
		<path id="SVGCleanerId_3_1_" d="M503.322,389.508c-5.207,0-8.678-3.471-8.678-8.678v-8.678c0-5.207,3.471-8.678,8.678-8.678
			c5.207,0,8.678,3.471,8.678,8.678v8.678C512,386.037,508.529,389.508,503.322,389.508z"/>
	</g>
	<g>
		<path id="SVGCleanerId_4_1_" d="M78.102,146.525c-5.207,0-8.678-3.471-8.678-8.678v-34.712c0-5.207,3.471-8.678,8.678-8.678
			c5.207,0,8.678,3.471,8.678,8.678v34.712C86.78,143.054,83.308,146.525,78.102,146.525z"/>
	</g>
	<g>
		<path id="SVGCleanerId_5_1_" d="M321.085,111.814H78.102c-5.207,0-8.678-3.471-8.678-8.678c0-5.207,3.471-8.678,8.678-8.678
			h242.983c5.207,0,8.678,3.471,8.678,8.678C329.763,108.342,326.292,111.814,321.085,111.814z"/>
	</g>
	<g>
		<path id="SVGCleanerId_6_1_" d="M321.085,146.525c-5.207,0-8.678-3.471-8.678-8.678v-34.712c0-5.207,3.471-8.678,8.678-8.678
			s8.678,3.471,8.678,8.678v34.712C329.763,143.054,326.292,146.525,321.085,146.525z"/>
	</g>
	<g>
		<path id="SVGCleanerId_7_1_" d="M295.051,259.339c-5.207,0-8.678-3.471-8.678-8.678v-17.356c0-5.207,3.471-8.678,8.678-8.678
			c5.207,0,8.678,3.471,8.678,8.678v17.356C303.729,255.868,300.258,259.339,295.051,259.339z"/>
	</g>
	<g>
		<path id="SVGCleanerId_8_1_" d="M433.898,259.339c-5.207,0-8.678-3.471-8.678-8.678v-17.356c0-5.207,3.471-8.678,8.678-8.678
			c5.207,0,8.678,3.471,8.678,8.678v17.356C442.576,255.868,439.105,259.339,433.898,259.339z"/>
	</g>
	<g>
		<path id="SVGCleanerId_9_1_" d="M199.593,424.22c-5.207,0-8.678-3.471-8.678-8.678V103.136c0-5.207,3.471-8.678,8.678-8.678
			c5.207,0,8.678,3.471,8.678,8.678v312.407C208.271,420.749,204.8,424.22,199.593,424.22z"/>
	</g>
	<g>
		<path id="SVGCleanerId_10_1_" d="M251.661,424.22H147.525c-5.207,0-8.678-3.471-8.678-8.678c0-5.207,3.471-8.678,8.678-8.678
			h104.136c5.207,0,8.678,3.471,8.678,8.678C260.339,420.749,256.868,424.22,251.661,424.22z"/>
	</g>
	<g>
		<path id="SVGCleanerId_11_1_" d="M364.475,424.22c-5.207,0-8.678-3.471-8.678-8.678V233.305c0-5.207,3.471-8.678,8.678-8.678
			s8.678,3.471,8.678,8.678v182.237C373.153,420.749,369.681,424.22,364.475,424.22z"/>
	</g>
	<g>
		<path id="SVGCleanerId_12_1_" d="M399.186,424.22h-69.424c-5.207,0-8.678-3.471-8.678-8.678c0-5.207,3.471-8.678,8.678-8.678
			h69.424c5.207,0,8.678,3.471,8.678,8.678C407.864,420.749,404.393,424.22,399.186,424.22z"/>
	</g>
	<g>
		<path id="SVGCleanerId_13_1_" d="M433.898,241.983H295.051c-5.207,0-8.678-3.471-8.678-8.678s3.471-8.678,8.678-8.678h138.847
			c5.207,0,8.678,3.471,8.678,8.678S439.105,241.983,433.898,241.983z"/>
	</g>
</g>
<g>
</g>
<g>
</g>
<g>
</g>
<g>
</g>
<g>
</g>
<g>
</g>
<g>
</g>
<g>
</g>
<g>
</g>
<g>
</g>
<g>
</g>
<g>
</g>
<g>
</g>
<g>
</g>
<g>
</g>
</svg>
