<?xml version="1.0" encoding="iso-8859-1"?>
<!-- Generator: Adobe Illustrator 19.0.0, SVG Export Plug-In . SVG Version: 6.00 Build 0)  -->
<svg version="1.1" id="Layer_1" xmlns="http://www.w3.org/2000/svg" xmlns:xlink="http://www.w3.org/1999/xlink" x="0px" y="0px"
	 viewBox="0 0 512 512" style="enable-background:new 0 0 512 512;" xml:space="preserve">
<path style="fill:#FFA400;" d="M477.419,106.398H255.352l-1.989-12.917c-2.224-14.426-15.984-26.229-30.583-26.229H115.963
	c-14.595,0-28.357,11.803-30.579,26.229l-1.992,12.917h-7.568c-14.595,0-26.537,11.942-26.537,26.539v285.272
	c0,14.596,11.942,26.539,26.537,26.539h401.594c14.593,0,26.537-11.942,26.537-26.539V132.937
	C503.957,118.341,492.012,106.398,477.419,106.398z"/>
<rect x="73.879" y="135.004" style="fill:#FFFFFF;" width="398.073" height="269.825"/>
<path style="fill:#F6C65B;" d="M463.053,190.321c-2.317-14.41-16.156-26.202-30.75-26.202H30.71
	c-14.598,0-24.645,11.792-22.327,26.202l36.691,228.224c2.317,14.412,16.157,26.203,30.752,26.203h401.594
	c14.593,0,24.642-11.791,22.325-26.203L463.053,190.321z"/>
<path d="M477.419,98.355H262.252l-0.94-6.099c-2.81-18.221-20.095-33.046-38.532-33.046H115.963
	c-18.439,0-35.723,14.826-38.528,33.046l-0.941,6.099h-0.67c-19.068,0-34.581,15.513-34.581,34.582v23.139H30.71
	c-9.454,0-17.847,3.738-23.629,10.524c-5.783,6.787-8.14,15.665-6.64,24.998l36.691,228.224
	c2.924,18.18,20.281,32.969,38.694,32.969h401.594c1.782,0,3.525-0.134,5.222-0.395C499.24,449.871,512,435.503,512,418.209V132.937
	C512,113.868,496.487,98.355,477.419,98.355z M488.8,431.834c-2,2.348-4.764,3.905-7.979,4.543c-0.133,0.025-0.269,0.04-0.403,0.062
	c-0.399,0.069-0.799,0.134-1.21,0.175c-0.589,0.057-1.185,0.091-1.789,0.091H75.826c-10.671,0-21.116-8.901-22.811-19.435
	L16.324,189.046c-0.741-4.605,0.325-8.87,3.001-12.012c2.677-3.14,6.72-4.87,11.384-4.87h401.594
	c10.669,0,21.115,8.901,22.808,19.435l36.691,228.224C492.542,424.427,491.476,428.694,488.8,431.834z M495.913,344.036
	l-24.917-154.992c-2.924-18.18-20.28-32.969-38.692-32.969H57.332v-23.139c0-10.198,8.296-18.495,18.494-18.495h7.568
	c3.969,0,7.345-2.895,7.949-6.818l1.993-12.918c1.619-10.521,11.982-19.409,22.628-19.409h106.817
	c10.645,0,21.011,8.89,22.634,19.41l1.989,12.916c0.604,3.923,3.98,6.819,7.949,6.819H477.42c10.198,0,18.494,8.297,18.494,18.495
	v211.1H495.913z"/>
<g>
</g>
<g>
</g>
<g>
</g>
<g>
</g>
<g>
</g>
<g>
</g>
<g>
</g>
<g>
</g>
<g>
</g>
<g>
</g>
<g>
</g>
<g>
</g>
<g>
</g>
<g>
</g>
<g>
</g>
</svg>
