<?xml version="1.0" encoding="iso-8859-1"?>
<!-- Generator: Adobe Illustrator 19.0.0, SVG Export Plug-In . SVG Version: 6.00 Build 0)  -->
<svg version="1.1" id="Capa_1" xmlns="http://www.w3.org/2000/svg" xmlns:xlink="http://www.w3.org/1999/xlink" x="0px" y="0px"
	 viewBox="0 0 512.002 512.002" style="enable-background:new 0 0 512.002 512.002;" xml:space="preserve">
<g>
	<g transform="translate(1 1)">
		<path style="fill:#CFD8DC;" d="M412.871,101.4v366.933H71.537c-9.053,0.003-17.737-3.593-24.139-9.995
			c-6.402-6.402-9.997-15.085-9.995-24.139V101.4c-0.003-9.054,3.593-17.737,9.995-24.139c6.402-6.402,15.085-9.997,24.139-9.995
			h42.667c0.028-9.414,7.652-17.039,17.067-17.067h25.6V24.6c0.028-9.414,7.652-17.039,17.067-17.067h102.4
			c9.414,0.028,17.039,7.652,17.067,17.067v25.6h25.6c9.414,0.028,17.039,7.652,17.067,17.067h42.667
			c9.054-0.003,17.737,3.593,24.139,9.995C409.278,83.663,412.873,92.346,412.871,101.4z"/>
		<path style="fill:#607D8B;" d="M412.871,101.4v366.933h-25.6V101.4c0.003-9.054-3.593-17.737-9.995-24.139
			c-6.402-6.402-15.085-9.997-24.139-9.995l25.6,0c9.054-0.003,17.737,3.593,24.139,9.995
			C409.278,83.663,412.873,92.346,412.871,101.4z"/>
		<g>
			<path style="fill:#00838F;" d="M131.271,50.2h187.733c9.426,0,17.067,7.641,17.067,17.067V101.4
				c0,9.426-7.641,17.067-17.067,17.067H131.271c-9.426,0-17.067-7.641-17.067-17.067V67.267
				C114.204,57.841,121.845,50.2,131.271,50.2z"/>
			<path style="fill:#00838F;" d="M293.404,24.6v25.6H156.871V24.6c0.028-9.414,7.652-17.039,17.067-17.067h102.4
				C285.752,7.561,293.376,15.186,293.404,24.6z"/>
		</g>
		<g>
			<path style="fill:#00BCD4;" d="M131.271,50.2h162.133c9.426,0,17.067,7.641,17.067,17.067V101.4
				c0,9.426-7.641,17.067-17.067,17.067H131.271c-9.426,0-17.067-7.641-17.067-17.067V67.267
				C114.204,57.841,121.845,50.2,131.271,50.2z"/>
			<path style="fill:#00BCD4;" d="M267.804,24.6v25.6H156.871V24.6c0.028-9.414,7.652-17.039,17.067-17.067h76.8
				C260.152,7.561,267.776,15.186,267.804,24.6z"/>
		</g>
		<path style="fill:#D84315;" d="M472.519,468.504c0.224,9.255-3.426,18.182-10.068,24.63c-6.642,6.448-15.675,9.831-24.919,9.332
			H302.876c-9.244,0.498-18.276-2.884-24.919-9.332c-6.642-6.448-10.292-15.376-10.068-24.63v-0.171l12.373-149.931
			c1.947-15.613,14.607-27.703,30.293-28.928c1.524-0.244,3.065-0.358,4.608-0.341h110.08c1.543-0.014,3.084,0.101,4.608,0.341
			c15.686,1.225,28.347,13.315,30.293,28.928L472.519,468.504z"/>
		<path style="fill:#FF5722;" d="M446.919,468.504c0.224,9.255-3.426,18.182-10.068,24.63c-6.642,6.448-15.675,9.831-24.919,9.332
			H302.876c-9.244,0.498-18.276-2.884-24.919-9.332c-6.642-6.448-10.292-15.376-10.068-24.63v-0.171l12.373-149.931
			c1.947-15.613,14.607-27.703,30.293-28.928c1.524-0.244,3.065-0.358,4.608-0.341h84.48c1.543-0.014,3.084,0.101,4.608,0.341
			c15.686,1.225,28.347,13.315,30.293,28.928L446.919,468.504z"/>
		<g>
			<path style="fill:#FDD834;" d="M429.937,272.067v17.067l-0.085,0.341c-1.524-0.241-3.065-0.355-4.608-0.341h-110.08
				c-1.543-0.017-3.084,0.097-4.608,0.341l-0.085-0.341v-17.067c0.839-10.172,9.701-17.779,19.883-17.067h79.701
				C420.226,254.318,429.07,261.909,429.937,272.067z"/>
			<path style="fill:#FDD834;" d="M412.871,220.867V255h-76.8l0-34.133c-0.009-6.792,2.685-13.309,7.488-18.112
				c4.803-4.803,11.32-7.497,18.112-7.488h25.6c6.792-0.009,13.309,2.685,18.112,7.488
				C410.185,207.558,412.88,214.074,412.871,220.867z"/>
		</g>
		<g>
			<path style="fill:#FFEB3A;" d="M404.337,272.067v17.067l-0.085,0.341c-1.524-0.241-3.065-0.355-4.608-0.341h-89.173v-17.067
				c0.839-10.172,9.701-17.779,19.883-17.067h54.101C394.626,254.318,403.47,261.909,404.337,272.067z"/>
			<path style="fill:#FFEB3A;" d="M387.271,220.867V255h-51.2v-34.133c0-14.139,11.462-25.6,25.6-25.6
				C375.809,195.267,387.271,206.728,387.271,220.867z"/>
			<path style="fill:#FFEB3A;" d="M344.604,348.867h51.2c14.138,0,25.6,11.462,25.6,25.6v51.2c0,14.138-11.462,25.6-25.6,25.6h-51.2
				c-14.138,0-25.6-11.462-25.6-25.6v-51.2C319.004,360.328,330.466,348.867,344.604,348.867z"/>
		</g>
	</g>
	<g>
		<path d="M277.337,0h-102.4c-14.132,0.015-25.585,11.468-25.6,25.6v17.067h-17.067c-10.813,0.033-20.435,6.868-24.028,17.067
			H72.537C48.985,59.761,29.898,78.847,29.871,102.4v332.8c0.028,23.553,19.114,42.639,42.667,42.667h188.317
			c1.214,7.472,4.609,14.418,9.758,19.967c8.619,9.143,20.66,14.278,33.225,14.167h134.733c12.565,0.111,24.606-5.023,33.225-14.167
			c7.352-7.791,11.064-18.329,10.217-29.008l-12.325-150.121c-1.916-16.774-13.903-30.667-30.217-35.018v-10.62
			c-0.32-10.58-7.095-19.881-17.067-23.43V102.4c-0.028-23.553-19.114-42.639-42.667-42.667h-35.706
			c-3.592-10.199-13.215-17.033-24.028-17.067h-17.067V25.6C302.922,11.468,291.469,0.015,277.337,0z M166.404,25.6
			c0.006-4.71,3.823-8.527,8.533-8.533h102.4c4.71,0.006,8.527,3.823,8.533,8.533v17.067H166.404V25.6z M452.679,320.104
			l12.325,150.121c0.432,5.922-1.66,11.75-5.758,16.046c-5.386,5.638-12.878,8.777-20.675,8.663H303.837
			c-7.797,0.114-15.289-3.025-20.675-8.663c-4.099-4.296-6.19-10.124-5.758-16.046l12.325-150.121
			c2.004-12.871,13.426-22.134,26.433-21.438h110.083C439.253,297.97,450.675,307.234,452.679,320.104z M405.337,247.467h-59.733
			v-25.6c0.009-9.422,7.645-17.057,17.067-17.067h25.6c9.422,0.009,17.057,7.645,17.067,17.067V247.467z M331.383,264.533h79.642
			c6.167,0,11.379,3.908,11.379,8.533v8.533h-102.4v-8.533C320.004,268.442,325.216,264.533,331.383,264.533z M405.337,102.4v90.082
			c-5.164-3.075-11.056-4.714-17.067-4.748h-25.6c-18.842,0.022-34.112,15.291-34.133,34.133v25.859
			c-13.793,0.577-24.883,11.554-25.6,25.341v10.62c-16.313,4.351-28.301,18.243-30.217,35.018L261.055,460.8H72.537
			c-14.132-0.015-25.585-11.468-25.6-25.6V102.4c0.015-14.132,11.468-25.585,25.6-25.6h34.133v25.6
			c0.015,14.132,11.468,25.585,25.6,25.6h187.733c14.132-0.015,25.585-11.468,25.6-25.6V76.8h34.133
			C393.869,76.815,405.322,88.268,405.337,102.4z M328.537,68.267V102.4c-0.006,4.71-3.823,8.527-8.533,8.533H132.271
			c-4.71-0.006-8.527-3.823-8.533-8.533V68.267c0.006-4.71,3.823-8.527,8.533-8.533h187.733
			C324.714,59.739,328.531,63.556,328.537,68.267z"/>
		<path d="M396.804,341.333h-51.2c-18.842,0.022-34.112,15.291-34.133,34.133v51.2c0.022,18.842,15.291,34.112,34.133,34.133h51.2
			c18.842-0.022,34.112-15.291,34.133-34.133v-51.2C430.916,356.624,415.646,341.355,396.804,341.333z M413.871,426.667
			c-0.009,9.422-7.645,17.057-17.067,17.067h-51.2c-9.422-0.009-17.057-7.645-17.067-17.067v-51.2
			c0.009-9.422,7.645-17.057,17.067-17.067h51.2c9.422,0.009,17.057,7.645,17.067,17.067V426.667z"/>
	</g>
</g>
<g>
</g>
<g>
</g>
<g>
</g>
<g>
</g>
<g>
</g>
<g>
</g>
<g>
</g>
<g>
</g>
<g>
</g>
<g>
</g>
<g>
</g>
<g>
</g>
<g>
</g>
<g>
</g>
<g>
</g>
</svg>
