<?xml version="1.0" encoding="iso-8859-1"?>
<!-- Generator: Adobe Illustrator 19.0.0, SVG Export Plug-In . SVG Version: 6.00 Build 0)  -->
<svg version="1.1" id="Capa_1" xmlns="http://www.w3.org/2000/svg" xmlns:xlink="http://www.w3.org/1999/xlink" x="0px" y="0px"
	 viewBox="0 0 512 512" style="enable-background:new 0 0 512 512;" xml:space="preserve">
<g>
	<g transform="translate(1 1)">
		<circle style="fill:#2E7D32;" cx="255" cy="255" r="247.467"/>
		<circle style="fill:#4CAF50;" cx="255" cy="255" r="213.333"/>
		<g>
			<path style="fill:#2E7D32;" d="M152.6,391.533l-54.699,54.699c-12.46-10.241-23.892-21.673-34.133-34.133l54.699-54.699"/>
			<path style="fill:#2E7D32;" d="M357.4,118.467l30.293-30.293l24.405-24.405c12.46,10.241,23.892,21.673,34.133,34.133
				l-24.405,24.405L391.533,152.6"/>
			<path style="fill:#2E7D32;" d="M391.533,357.4l54.699,54.699c-10.241,12.46-21.673,23.892-34.133,34.133L357.4,391.533"/>
			<path style="fill:#2E7D32;" d="M118.467,152.6l-30.293-30.293L63.768,97.901c10.241-12.46,21.673-23.892,34.133-34.133
				l24.405,24.405l30.293,30.293"/>
		</g>
		<path style="fill:#F44335;" d="M255,92.867L255,92.867c89.544,0,162.133,72.59,162.133,162.133l0,0
			c0,89.544-72.59,162.133-162.133,162.133l0,0c-89.544,0-162.133-72.59-162.133-162.133l0,0
			C92.867,165.456,165.456,92.867,255,92.867z"/>
	</g>
	<g>
		<path d="M280.767,165.558l7.645-4.683c2.599-1.591,4.152-4.449,4.073-7.495s-1.777-5.82-4.454-7.275
			c-2.678-1.455-5.928-1.371-8.528,0.22l-27.958,17.117c-0.175,0.107-0.266,0.297-0.431,0.416c-0.679,0.481-1.282,1.062-1.788,1.724
			c-0.686,1.243-1.276,2.536-1.764,3.869c-0.028,0.187,0.054,0.365,0.038,0.552c-0.019,0.23-0.134,0.428-0.134,0.664
			c0.052,0.46,0.144,0.915,0.275,1.359c0.419,1.529,1.048,2.992,1.867,4.35l22.608,25.55c3.132,3.499,8.502,3.811,12.019,0.698
			c3.516-3.113,3.858-8.481,0.764-12.014l-7.288-8.233c34.919,10.344,57.754,43.81,54.652,80.096s-31.285,65.392-67.453,69.659
			c-36.167,4.267-70.351-17.479-81.813-52.047c-11.462-34.568,2.957-72.43,34.51-90.616c4.078-2.361,5.469-7.581,3.108-11.659
			c-2.361-4.078-7.581-5.469-11.659-3.108c-38.844,22.321-56.532,68.957-42.261,111.424s56.532,68.957,100.973,63.291
			s78.704-41.912,81.863-86.601S323.968,177.419,280.767,165.558L280.767,165.558z"/>
		<path d="M453.825,93.707c-0.168-0.292-0.355-0.572-0.558-0.841c-0.093-0.093-0.219-0.121-0.315-0.209
			c-10.146-12.212-21.396-23.463-33.609-33.609c-0.088-0.096-0.116-0.222-0.209-0.315c-0.268-0.203-0.549-0.39-0.841-0.558
			C324-19.392,188-19.392,93.707,58.175c-0.292,0.168-0.572,0.355-0.841,0.558c-0.093,0.093-0.121,0.219-0.209,0.315
			C80.445,69.194,69.194,80.445,59.048,92.657c-0.096,0.088-0.222,0.116-0.315,0.209c-0.203,0.268-0.39,0.549-0.558,0.841
			C-19.392,188-19.392,324,58.175,418.293c0.168,0.292,0.355,0.572,0.558,0.841c0.093,0.093,0.219,0.121,0.315,0.209
			c10.146,12.212,21.396,23.463,33.609,33.609c0.088,0.096,0.116,0.222,0.209,0.315c0.268,0.203,0.549,0.39,0.841,0.558
			c94.293,77.567,230.292,77.567,324.585,0c0.292-0.168,0.572-0.355,0.841-0.558c0.093-0.093,0.121-0.219,0.209-0.315
			c12.212-10.146,23.463-21.396,33.609-33.609c0.096-0.088,0.222-0.116,0.315-0.209c0.203-0.268,0.39-0.549,0.558-0.841
			C531.392,324,531.392,188,453.825,93.707z M446.375,400.176l-12.349-12.348c58.454-78.165,58.454-185.49,0-263.655l12.349-12.348
			C511.119,197.039,511.119,314.961,446.375,400.176z M256,426.667c33.971,0.04,67.172-10.118,95.306-29.157l24.332,24.331
			c-71.301,51.946-167.976,51.946-239.276,0l24.332-24.331C188.828,416.549,222.029,426.706,256,426.667z M256,409.6
			c-84.831,0-153.6-68.769-153.6-153.6S171.169,102.4,256,102.4S409.6,171.169,409.6,256C409.503,340.791,340.791,409.503,256,409.6
			z M90.161,375.641c-51.948-71.302-51.948-167.98,0-239.282l24.332,24.33c-38.88,57.593-38.88,133.029,0,190.622L90.161,375.641z
			 M256,85.333c-33.971-0.04-67.172,10.118-95.306,29.157L136.362,90.16c71.301-51.947,167.975-51.947,239.276,0l-24.332,24.331
			C323.172,95.451,289.971,85.294,256,85.333z M426.667,256c0.04-33.973-10.118-67.176-29.16-95.311l24.332-24.33
			c51.948,71.302,51.948,167.98,0,239.282l-24.332-24.33C416.548,323.176,426.707,289.973,426.667,256z M435.504,98.562
			l-48.375,48.371c-6.672-8.008-14.059-15.394-22.067-22.066l48.375-48.372C421.262,83.367,428.633,90.738,435.504,98.562z
			 M400.176,65.624l-12.351,12.349c-78.164-58.453-185.486-58.453-263.65,0l-12.351-12.349
			C197.039,0.881,314.961,0.881,400.176,65.624z M98.562,76.495l48.375,48.372c-8.009,6.672-15.395,14.058-22.067,22.066
			L76.496,98.562C83.367,90.738,90.738,83.367,98.562,76.495L98.562,76.495z M65.625,111.823l12.349,12.348
			c-58.454,78.165-58.454,185.49,0,263.655l-12.349,12.348C0.881,314.961,0.881,197.038,65.625,111.823z M76.496,413.437
			l48.375-48.371c6.672,8.008,14.059,15.394,22.067,22.066l-48.375,48.372C90.738,428.633,83.367,421.262,76.496,413.437
			L76.496,413.437z M111.825,446.376l12.351-12.349c78.164,58.453,185.486,58.453,263.65,0l12.351,12.349
			C314.961,511.119,197.039,511.119,111.825,446.376z M413.438,435.504l-48.375-48.372c8.009-6.672,15.395-14.058,22.067-22.066
			l48.375,48.371C428.633,421.262,421.262,428.633,413.438,435.504L413.438,435.504z"/>
	</g>
</g>
<g>
</g>
<g>
</g>
<g>
</g>
<g>
</g>
<g>
</g>
<g>
</g>
<g>
</g>
<g>
</g>
<g>
</g>
<g>
</g>
<g>
</g>
<g>
</g>
<g>
</g>
<g>
</g>
<g>
</g>
</svg>
