<svg height="512pt" viewBox="0 0 512.00006 512" width="512pt" xmlns="http://www.w3.org/2000/svg"><path d="m503.464844 54.699219v431.699219c-.027344 9.414062-7.652344 17.039062-17.066406 17.066406h-460.796876c-9.414062-.027344-17.039062-7.652344-17.066406-17.066406v-460.796876c.027344-9.414062 7.652344-17.039062 17.066406-17.066406h59.730469c4.714844 0 8.535157 3.820313 8.535157 8.53125v153.601563c.460937 9.796875 8.714843 17.402343 18.515624 17.066406h68.695313c-9.933594.488281-18.398437-7.136719-18.945313-17.066406v-153.601563c-.03125-.460937.023438-.925781.171876-1.363281v-.34375c.808593-3.972656 4.304687-6.828125 8.363281-6.824219h286.632812c2.238281.015625 4.378907.902344 5.972657 2.472656l37.71875 37.71875c1.570312 1.59375 2.457031 3.734376 2.472656 5.972657zm0 0" fill="#1566c0"/><path d="m469.332031 54.699219v431.699219c.289063 9.089843-6.804687 16.707031-15.886719 17.066406h-429.023437c-9.082031-.359375-16.175781-7.976563-15.886719-17.066406v-460.796876c-.289062-9.089843 6.804688-16.707031 15.886719-17.066406h55.613281c4.542969.179688 8.085938 3.988282 7.945313 8.53125v153.601563c.085937 9.457031 7.785156 17.074219 17.242187 17.066406h63.949219c-9.578125.152344-17.46875-7.488281-17.628906-17.066406v-153.601563c-.03125-.460937.023437-.921875.152343-1.363281v-.34375c.613282-3.855469 3.890626-6.726563 7.792969-6.824219h266.863281c2.113282.03125 4.125.925782 5.5625 2.472656l35.117188 37.71875c1.476562 1.636719 2.300781 3.765626 2.300781 5.972657zm0 0" fill="#2296f3"/><path d="m418.132812 17.066406v153.601563c.015626.570312-.011718 1.140625-.085937 1.707031-.15625 1.128906-.410156 2.242188-.765625 3.328125-.941406 2.671875-2.523438 5.074219-4.609375 6.996094h-.085937c-2.664063 2.453125-5.984376 4.082031-9.554688 4.691406-1.121094.246094-2.269531.359375-3.414062.34375h-218.539063c-9.933594.488281-18.398437-7.136719-18.945313-17.066406v-153.601563c-.03125-.460937.023438-.925781.171876-1.363281v-.34375c1.171874-4.136719 5.003906-6.949219 9.300781-6.824219h237.054687c4.960938-.230468 9.183594 3.574219 9.472656 8.53125zm0 0" fill="#607d8b"/><path d="m392.535156 17.066406v153.601563c.011719.570312-.011718 1.140625-.078125 1.707031-.140625 1.125-.371093 2.238281-.691406 3.328125-.816406 2.625-2.238281 5.019531-4.148437 6.996094h-.074219c-2.320313 2.410156-5.320313 4.050781-8.601563 4.691406-1.007812.246094-2.039062.359375-3.074218.34375h-196.667969c-9.425781 0-17.066407-7.640625-17.066407-17.066406v-153.601563c-.03125-.460937.023438-.921875.152344-1.363281v-.34375c.839844-3.964844 4.328125-6.804687 8.382813-6.824219h213.332031c4.710938 0 8.535156 3.820313 8.535156 8.53125zm0 0" fill="#cfd8dc"/><path d="m181.078125 187.734375h-68.695313c-9.800781.335937-18.054687-7.269531-18.515624-17.066406v-153.601563c0 4.714844 3.820312 8.535156 8.53125 8.535156h51.203124c4.710938 0 8.53125-3.820312 8.53125-8.535156v153.601563c.546876 9.929687 9.011719 17.554687 18.945313 17.066406zm0 0" fill="#1566c0"/><path d="m155.476562 187.734375h-48.527343c-8.230469-1.265625-13.996094-8.792969-13.082031-17.066406v-153.601563c0 4.695313 2.714843 8.535156 6.023437 8.535156h36.171875c3.320312 0 6.035156-3.839843 6.035156-8.535156v153.601563c-.886718 8.367187 5.039063 15.925781 13.378906 17.066406zm0 0" fill="#2296f3"/><path d="m315.734375 42.667969h34.132813c4.710937 0 8.53125 3.820312 8.53125 8.53125v93.867187c0 4.714844-3.820313 8.535156-8.53125 8.535156h-34.132813c-4.714844 0-8.535156-3.820312-8.535156-8.535156v-93.867187c0-4.710938 3.820312-8.53125 8.535156-8.53125zm0 0" fill="#37474f"/><path d="m418.132812 247.464844v25.601562h-324.265624v-25.601562c.027343-9.414063 7.652343-17.035156 17.066406-17.066406h290.132812c9.414063.03125 17.039063 7.652343 17.066406 17.066406zm0 0" fill="#cfd8dc"/><path d="m418.132812 273.066406v213.332032c-.027343 9.414062-7.652343 17.039062-17.066406 17.066406h-290.132812c-9.414063-.027344-17.039063-7.652344-17.066406-17.066406v-213.332032zm0 0" fill="#cfd8dc"/><path d="m392.535156 247.464844v25.601562h-298.667968v-25.601562c-.328126-9.035156 6.683593-16.648438 15.71875-17.066406h267.230468c9.03125.417968 16.042969 8.03125 15.71875 17.066406zm0 0" fill="#f5f5f5"/><path d="m392.535156 273.066406v213.332032c.324219 9.039062-6.6875 16.652343-15.71875 17.066406h-267.230468c-9.035157-.414063-16.046876-8.027344-15.71875-17.066406v-213.332032zm0 0" fill="#f5f5f5"/><path d="m51.199219 435.199219h34.132812c4.714844 0 8.535157 3.820312 8.535157 8.535156v17.066406c0 4.710938-3.820313 8.53125-8.535157 8.53125h-34.132812c-4.710938 0-8.53125-3.820312-8.53125-8.53125v-17.066406c0-4.714844 3.820312-8.535156 8.53125-8.535156zm0 0" fill="#1566c0"/><path d="m426.667969 435.199219h34.132812c4.710938 0 8.53125 3.820312 8.53125 8.535156v17.066406c0 4.710938-3.820312 8.53125-8.53125 8.53125h-34.132812c-4.714844 0-8.535157-3.820312-8.535157-8.53125v-17.066406c0-4.714844 3.820313-8.535156 8.535157-8.535156zm0 0" fill="#1566c0"/><path d="m469.332031 5c-3.203125-3.191406-7.539062-4.9882812-12.066406-5h-286.597656c-9.425781 0-17.066407 7.640625-17.066407 17.066406h-51.203124c0-9.425781-7.640626-17.066406-17.066407-17.066406h-59.730469c-14.140624 0-25.601562 11.460938-25.601562 25.601562v460.796876c0 14.140624 11.460938 25.601562 25.601562 25.601562h460.796876c14.140624 0 25.601562-11.460938 25.601562-25.601562v-431.664063c.011719-4.53125-1.789062-8.875-5-12.066406zm-60.679687 12.066406c.582031 0 .914062.230469.949218.058594v153.542969c-.015624 1.15625-.308593 2.289062-.855468 3.308593-.042969.078126-.128906.136719-.179688.222657-2.023437 3.214843-5.597656 5.117187-9.394531 5h-218.078125c-5.21875.464843-9.847656-3.328125-10.425781-8.53125l-.085938-144.640625c0-.144532.085938-.273438.085938-.425782 0-.15625-.078125-.28125-.085938-.429687v-7.199219c0-.199218.058594-.375.058594-.574218.265625-.234376.617187-.355469.972656-.332032zm-255.050782 17.066406v136.535157c.039063 2.921875.617188 5.816406 1.707032 8.53125h-42.917969c-5.078125.300781-9.492187-3.464844-9.992187-8.53125v-136.535157zm-68.269531 426.667969h-34.132812v-17.066406h34.132812zm341.335938-17.066406h34.132812v17.066406h-34.132812zm-17.066407-179.199219h-307.203124v-17.070312c0-4.710938 3.820312-8.53125 8.535156-8.53125h290.132812c4.714844 0 8.535156 3.820312 8.535156 8.53125zm-298.667968 230.398438c-4.714844 0-8.535156-3.820313-8.535156-8.535156v-204.796876h307.203124v204.796876c0 4.714843-3.820312 8.535156-8.535156 8.535156zm384-8.535156c0 4.714843-3.820313 8.535156-8.535156 8.535156h-61.300782c1.007813-2.734375 1.539063-5.621094 1.570313-8.535156v-8.53125h34.132812c9.425781 0 17.066407-7.640626 17.066407-17.066407v-17.066406c0-9.425781-7.640626-17.066406-17.066407-17.066406h-34.132812v-179.203125c0-14.136719-11.460938-25.597656-25.601563-25.597656h-290.132812c-14.140625 0-25.601563 11.460937-25.601563 25.597656v179.203125h-34.132812c-9.425781 0-17.066407 7.640625-17.066407 17.066406v17.066406c0 9.425781 7.640626 17.066407 17.066407 17.066407h34.132812v8.53125c.03125 2.914062.5625 5.800781 1.570313 8.535156h-61.300782c-4.714843 0-8.535156-3.820313-8.535156-8.535156v-460.796876c0-4.714843 3.820313-8.535156 8.535156-8.535156h59.730469v153.601563c.433594 14.527343 12.53125 25.972656 27.058594 25.597656h287.21875c14.527344.375 26.625-11.070313 27.058594-25.597656v-153.601563h30.597656l37.667969 37.667969zm0 0"/><path d="m315.734375 162.132812h34.132813c9.425781 0 17.066406-7.640624 17.066406-17.066406v-93.867187c0-9.425781-7.640625-17.066407-17.066406-17.066407h-34.132813c-9.425781 0-17.066406 7.640626-17.066406 17.066407v93.867187c0 9.425782 7.640625 17.066406 17.066406 17.066406zm0-110.933593h34.132813v93.867187h-34.132813zm0 0"/><path d="m57.234375 45.167969c-3.332031-3.332031-8.734375-3.332031-12.066406 0l-17.066407 17.066406c-3.234374 3.347656-3.1875 8.667969.101563 11.960937 3.292969 3.292969 8.613281 3.339844 11.964844.105469l2.5-2.5v30.597657c0 4.714843 3.820312 8.535156 8.53125 8.535156 4.714843 0 8.535156-3.820313 8.535156-8.535156v-30.597657l2.5 2.5c3.347656 3.234375 8.667969 3.1875 11.960937-.105469 3.292969-3.292968 3.339844-8.613281.105469-11.960937zm0 0"/><path d="m384 315.734375h-256c-4.710938 0-8.535156 3.820313-8.535156 8.53125 0 4.714844 3.824218 8.535156 8.535156 8.535156h256c4.710938 0 8.535156-3.820312 8.535156-8.535156 0-4.710937-3.824218-8.53125-8.535156-8.53125zm0 0"/><path d="m384 349.867188h-256c-4.710938 0-8.535156 3.820312-8.535156 8.53125 0 4.714843 3.824218 8.535156 8.535156 8.535156h256c4.710938 0 8.535156-3.820313 8.535156-8.535156 0-4.710938-3.824218-8.53125-8.535156-8.53125zm0 0"/><path d="m384 384h-256c-4.710938 0-8.535156 3.820312-8.535156 8.535156 0 4.710938 3.824218 8.53125 8.535156 8.53125h256c4.710938 0 8.535156-3.820312 8.535156-8.53125 0-4.714844-3.824218-8.535156-8.535156-8.535156zm0 0"/><path d="m384 418.132812h-256c-4.710938 0-8.535156 3.820313-8.535156 8.535157 0 4.710937 3.824218 8.53125 8.535156 8.53125h256c4.710938 0 8.535156-3.820313 8.535156-8.53125 0-4.714844-3.824218-8.535157-8.535156-8.535157zm0 0"/><path d="m384 452.265625h-256c-4.710938 0-8.535156 3.820313-8.535156 8.535156 0 4.710938 3.824218 8.53125 8.535156 8.53125h256c4.710938 0 8.535156-3.820312 8.535156-8.53125 0-4.714843-3.824218-8.535156-8.535156-8.535156zm0 0"/></svg>