<svg height="512pt" viewBox="0 0 512 512" width="512pt" xmlns="http://www.w3.org/2000/svg"><path d="m496.640625 222.550781-40.191406-8.363281c-4.511719-21.902344-12.644531-42.898438-24.066407-62.125l-72.445312-72.445312c-19.226562-11.421876-40.222656-19.554688-62.125-24.066407l-8.363281-40.191406c-.808594-3.972656-4.304688-6.828125-8.359375-6.824219h-50.179688c-4.054687-.003906-7.550781 2.851563-8.359375 6.824219l-8.363281 40.191406c-25.089844 5.140625-48.960938 15.046875-70.316406 29.183594l-12.285156-8.019531-22.101563-14.507813c-3.394531-2.234375-7.890625-1.773437-10.753906 1.109375l-35.414063 35.414063c-2.882812 2.863281-3.34375 7.359375-1.109375 10.753906l22.527344 34.386719c-14.136719 21.355468-24.042969 45.226562-29.183594 70.316406l-40.191406 8.363281c-3.972656.808594-6.828125 4.304688-6.824219 8.359375v50.179688c-.003906 4.054687 2.851563 7.550781 6.824219 8.359375l15.617187 3.242187 24.574219 5.121094c4.511719 21.902344 12.644531 42.898438 24.066407 62.125.679687 1.277344 1.535156 2.644531 2.386718 3.925781.855469 1.449219 1.792969 2.8125 2.730469 4.179688l-22.527344 34.472656c-2.210937 3.355469-1.785156 7.796875 1.023438 10.667969l35.585937 35.585937c2.871094 2.808594 7.3125 3.234375 10.667969 1.023438l22.101563-14.421875 12.371093-8.105469c1.367188.9375 2.730469 1.875 4.179688 2.730469 1.28125.851562 2.648437 1.707031 3.925781 2.386718 19.226562 11.421876 40.222656 19.554688 62.125 24.066407l8.363281 40.191406c.808594 3.972656 4.304688 6.828125 8.359375 6.824219h50.179688c4.054687.003906 7.550781-2.851563 8.359375-6.824219l8.363281-40.191406c19.972656-4.09375 39.199219-11.230469 57.003906-21.164063 4.523438-2.472656 8.960938-5.207031 13.3125-8.019531l24.746094 16.210937 9.640625 6.316407c3.394531 2.234375 7.890625 1.773437 10.753906-1.109375l35.414063-35.414063c2.882812-2.863281 3.34375-7.359375 1.109375-10.753906l-22.527344-34.386719c14.136719-21.355468 24.042969-45.226562 29.183594-70.316406l15.613281-3.242188 24.578125-5.121093c3.972656-.808594 6.828125-4.304688 6.824219-8.359375v-50.179688c.003906-4.054687-2.851563-7.550781-6.824219-8.359375zm0 0" fill="#cfd8dc"/><path d="m502.699219 20.652344-50.007813 111.101562-72.445312-72.445312 99.496094-44.800782 11.605468-5.207031c3.253906-1.449219 7.0625-.746093 9.582032 1.769531 2.515624 2.519532 3.21875 6.328126 1.769531 9.582032zm0 0" fill="#ff9801"/><path d="m479.742188 14.507812-44.796876 99.496094-54.699218-54.695312zm0 0" fill="#fec108"/><path d="m87.894531 358.015625-3.160156-3.15625c-3.199219-3.207031-7.542969-5.007813-12.074219-5.007813-4.527344 0-8.871094 1.800782-12.074218 5.007813l-12.03125 12.117187c-3.195313 3.1875-4.992188 7.515626-4.992188 12.03125 0 4.515626 1.796875 8.84375 4.992188 12.03125l72.449218 72.449219c3.1875 3.195313 7.515625 4.992188 12.03125 4.992188s8.84375-1.796875 12.03125-4.992188l12.117188-12.03125c3.207031-3.203125 5.003906-7.546875 5.003906-12.074219 0-4.53125-1.796875-8.875-5.003906-12.074218l-3.15625-3.160156zm0 0" fill="#607d8b"/><path d="m48.523438 391.078125 72.40625 72.40625-24.136719 24.136719c-13.328125 13.328125-34.941407 13.328125-48.269531 0l-24.136719-24.136719c-13.328125-13.328125-13.328125-34.941406 0-48.269531zm0 0" fill="#f57c00"/><path d="m503.464844 230.910156v50.179688c.003906 4.054687-2.851563 7.550781-6.824219 8.359375l-24.578125 5.121093-15.613281 3.242188c-5.140625 25.089844-15.046875 48.960938-29.183594 70.316406l22.527344 34.386719c2.234375 3.394531 1.773437 7.890625-1.109375 10.753906l-35.414063 35.414063c-2.863281 2.882812-7.359375 3.34375-10.753906 1.109375l-9.640625-6.316407 30.207031-30.207031c2.882813-2.863281 3.347657-7.359375 1.109375-10.753906l-22.527344-34.386719c14.136719-21.355468 24.042969-45.226562 29.183594-70.316406l40.191406-8.363281c3.976563-.808594 6.828126-4.304688 6.828126-8.359375v-50.179688c0-4.054687-2.851563-7.550781-6.828126-8.359375l-40.191406-8.363281c-4.511718-21.902344-12.644531-42.898438-24.0625-62.125l-72.449218-72.445312c-19.226563-11.421876-40.222657-19.554688-62.121094-24.066407l-8.363282-40.191406c-.8125-3.972656-4.308593-6.828125-8.363281-6.824219h25.601563c4.054687-.003906 7.550781 2.851563 8.359375 6.824219l8.363281 40.191406c21.902344 4.511719 42.898438 12.644531 62.125 24.066407l72.445312 72.445312c11.421876 19.226562 19.554688 40.222656 24.066407 62.125l40.191406 8.363281c3.972656.808594 6.828125 4.304688 6.824219 8.359375zm0 0" fill="#607d8b"/><path d="m477.867188 230.910156v50.179688c0 4.054687-2.851563 7.550781-6.828126 8.359375l-40.191406 8.363281c-5.140625 25.089844-15.046875 48.960938-29.183594 70.316406l22.527344 34.386719c2.238282 3.394531 1.773438 7.890625-1.109375 10.753906l-30.207031 30.207031-24.746094-16.210937c-4.351562 2.8125-8.789062 5.546875-13.3125 8.019531-17.804687 9.933594-37.03125 17.070313-57.003906 21.164063l-8.363281 40.191406c-.808594 3.972656-4.304688 6.828125-8.359375 6.824219h-50.179688c-4.054687.003906-7.550781-2.851563-8.359375-6.824219l-8.363281-40.191406c-21.902344-4.511719-42.898438-12.644531-62.125-24.066407-1.277344-.679687-2.644531-1.535156-3.925781-2.386718-1.449219-.855469-2.8125-1.792969-4.179688-2.730469l-12.371093 8.105469-22.101563 14.421875c-3.355469 2.210937-7.796875 1.785156-10.667969-1.023438l-35.585937-35.585937c-2.808594-2.871094-3.234375-7.3125-1.023438-10.667969l22.527344-34.472656c-.9375-1.367188-1.875-2.730469-2.730469-4.179688-.851562-1.28125-1.707031-2.648437-2.386718-3.925781-11.421876-19.226562-19.554688-40.222656-24.066407-62.125l-24.574219-5.121094-15.617187-3.242187c-3.972656-.808594-6.828125-4.304688-6.824219-8.359375v-50.179688c-.003906-4.054687 2.851563-7.550781 6.824219-8.359375l40.191406-8.363281c5.140625-25.089844 15.046875-48.960938 29.183594-70.316406l-22.527344-34.386719c-2.234375-3.394531-1.773437-7.890625 1.109375-10.753906l35.414063-35.414063c2.863281-2.882812 7.359375-3.34375 10.753906-1.109375l22.101563 14.507813 12.285156 8.019531c21.355468-14.136719 45.226562-24.042969 70.316406-29.183594l8.363281-40.191406c.808594-3.972656 4.304688-6.828125 8.359375-6.824219h50.691406c4.089844 0 7.632813 2.835938 8.53125 6.824219l8.535157 40.191406c22.269531 4.609375 16.722656 12.800781 35.667969 24.066407l72.449218 72.445312c11.417969 19.226562 19.550782 40.222656 24.0625 62.125l40.191406 8.363281c3.976563.808594 6.828126 4.304688 6.828126 8.359375zm0 0" fill="#cfd8dc"/><path d="m322.132812 117.417969c-20.628906-9.933594-43.238281-15.066407-66.132812-15.019531-84.832031 0-153.601562 68.769531-153.601562 153.601562.082031 84.796875 68.804687 153.519531 153.601562 153.601562 84.832031 0 153.601562-68.769531 153.601562-153.601562.046876-22.894531-5.085937-45.503906-15.019531-66.132812zm0 0" fill="#607d8b"/><path d="m268.03125 171.519531-96.511719 96.511719c-.585937-3.984375-.871093-8.003906-.851562-12.03125 0-47.128906 38.203125-85.332031 85.332031-85.332031 4.027344-.019531 8.046875.265625 12.03125.851562zm0 0" fill="#37474f"/><path d="m380.246094 59.308594-20.308594 20.308594-37.804688 37.800781-150.613281 150.613281c2.578125 18.300781 11.058594 35.257812 24.148438 48.300781l220.757812-220.757812zm0 0" fill="#f44335"/><path d="m416.425781 95.574219-220.757812 220.757812c13.042969 13.089844 30 21.570313 48.300781 24.148438l91.390625-91.390625 117.332031-117.335938zm0 0" fill="#c52828"/><path d="m502.699219 20.652344-18.773438 41.726562c-7.042969-4.300781-13.546875-9.429687-19.371093-15.273437-5.742188-5.71875-10.8125-12.074219-15.105469-18.945313l41.898437-18.859375c3.253906-1.449219 7.0625-.746093 9.582032 1.769531 2.515624 2.519532 3.21875 6.328126 1.769531 9.582032zm0 0" fill="#607d8b"/><path d="m243.96875 340.480469 96.511719-96.511719c.585937 3.984375.871093 8.003906.851562 12.03125 0 47.128906-38.203125 85.332031-85.332031 85.332031-4.027344.019531-8.046875-.265625-12.03125-.851562zm0 0" fill="#2c2f38"/><path d="m498.414062 214.230469-34.824218-7.273438c-4.414063-18.648437-11.367188-36.601562-20.667969-53.355469l15.804687-15.8125c.078126-.078124.101563-.1875.179688-.265624.632812-.671876 1.15625-1.441407 1.542969-2.277344v-.105469l.101562-.21875 49.886719-110.773437c2.933594-6.46875 1.554688-14.078126-3.464844-19.105469-5.015625-5.027344-12.621094-6.417969-19.097656-3.5l-110.785156 49.863281-.242188.101562-.09375.042969c-.152344.066407-.253906.210938-.410156.296875-.777344.363282-1.5.84375-2.132812 1.425782l-15.8125 15.847656c-16.753907-9.300782-34.707032-16.253906-53.355469-20.667969l-7.230469-34.867187c-1.675781-7.914063-8.652344-13.5742192-16.742188-13.585938h-50.132812c-8.074219.0273438-15.035156 5.6875-16.707031 13.585938l-7.273438 34.804687c-22.308593 5.195313-43.605469 14.039063-63.035156 26.171875l-29.761719-19.53125c-6.773437-4.390625-15.695312-3.472656-21.429687 2.210938l-35.496094 35.5c-5.683594 5.734374-6.59375 14.65625-2.195313 21.425781l19.523438 29.753906c-12.132812 19.429687-20.976562 40.726563-26.171875 63.035156l-34.804687 7.273438c-7.898438 1.671875-13.5585942 8.632812-13.585938 16.707031v50.132812c.0117188 8.089844 5.671875 15.066407 13.585938 16.742188l34.824218 7.269531c3.453125 14.667969 8.480469 28.921875 15 42.507813-5.570312.699218-10.761718 3.207031-14.769531 7.140625l-12.007813 12.050781c-7.695312 7.613281-9.675781 19.285156-4.921874 29.011719l-19.210938 19.234375c-16.632812 16.675781-16.632812 43.664062 0 60.339844l24.132812 24.132812c16.675782 16.632812 43.664063 16.632812 60.339844 0l19.207032-19.210938c9.722656 4.761719 21.394531 2.792969 29.015624-4.898437l12.183594-12.097656c3.914063-3.996094 6.40625-9.167969 7.09375-14.722657 13.582032 6.523438 27.828125 11.558594 42.496094 15.019532l7.269531 34.824218c1.671875 7.898438 8.628907 13.554688 16.699219 13.585938h50.132812c8.089844-.011719 15.066407-5.671875 16.742188-13.585938l7.269531-34.804687c22.3125-5.195313 43.609375-14.039063 63.039063-26.171875l29.761718 19.53125c6.773438 4.390625 15.695313 3.472656 21.429688-2.210938l35.496094-35.5c5.679687-5.734374 6.59375-14.65625 2.195312-21.425781l-19.527344-29.753906c12.136719-19.429687 20.980469-40.726563 26.171876-63.035156l34.808593-7.273438c7.878907-1.6875 13.515625-8.640625 13.542969-16.699219v-50.132812c-.027344-8.074219-5.6875-15.035156-13.585938-16.707031zm-97.347656 41.769531c-.089844 80.082031-64.984375 144.976562-145.066406 145.066406-21.628906.074219-42.992188-4.777344-62.464844-14.191406-29.976562-14.308594-54.132812-38.472656-68.4375-68.453125-9.394531-19.464844-14.238281-40.808594-14.164062-62.421875.089844-80.082031 64.984375-144.976562 145.066406-145.066406 17.464844 0 34.78125 3.210937 51.089844 9.464844l-42.199219 42.195312c-2.859375-.273438-5.777344-.460938-8.890625-.460938-51.816406.0625-93.804688 42.050782-93.867188 93.867188-.019531 4.425781.289063 8.847656.929688 13.226562 5.90625 41.296876 38.332031 73.757813 79.625 79.703126 4.410156.644531 8.859375.957031 13.3125.9375 51.816406-.0625 93.804688-42.050782 93.867188-93.867188 0-3.113281-.1875-6.03125-.460938-8.890625l42.195312-42.199219c6.253907 16.308594 9.464844 33.625 9.464844 51.089844zm-20.828125-184.617188 24.15625 24.191407-208.359375 208.324219c-7.726562-9.585938-13-20.910157-15.359375-32.992188zm66.34375-32.523437c3.59375 5.066406 7.589844 9.835937 11.949219 14.261719 4.542969 4.464844 9.464844 8.539062 14.703125 12.167968l-23.273437 51.667969-54.917969-54.917969zm-266.9375 208.972656c3.894531-35.921875 32.265625-64.292969 68.1875-68.1875zm152.746094 16.335938c-3.894531 35.921875-32.265625 64.292969-68.191406 68.1875zm-91.296875 67.121093c-12.085938-2.355468-23.410156-7.628906-32.992188-15.359374l208.324219-208.324219 24.160157 24.15625zm253.839844-314.164062-14.609375 32.367188c-3.429688-2.59375-6.683594-5.410157-9.738281-8.4375-2.914063-2.933594-5.648438-6.046876-8.183594-9.320313zm-446.207032 361.753906 11.945313-12.066406c1.601563-1.617188 3.785156-2.527344 6.0625-2.527344s4.460937.910156 6.0625 2.527344l1.554687 1.554688-19.0625 29.0625-6.589843-6.601563c-1.601563-1.589844-2.503907-3.75-2.503907-6.003906 0-2.253907.902344-4.417969 2.503907-6.003907zm36.179688 108.554688c-4.800781 4.800781-11.3125 7.5-18.101562 7.5-6.792969 0-13.304688-2.699219-18.105469-7.5l-24.132813-24.132813c-4.800781-4.800781-7.5-11.3125-7.5-18.105469 0-6.789062 2.699219-13.300781 7.5-18.101562l18.101563-18.101562 60.339843 60.339843zm60.382812-36.191406-12.167968 12.058593c-3.351563 3.21875-8.640625 3.21875-11.992188 0l-6.585937-6.589843 29.148437-19.078126 1.546875 1.550782c3.339844 3.320312 3.363281 8.714844.050781 12.058594zm349.644532-170.171876-40.226563 8.398438c-3.332031.695312-5.929687 3.304688-6.613281 6.636719-4.910156 24.027343-14.402344 46.882812-27.957031 67.320312-1.875 2.847657-1.875 6.539063 0 9.386719l22.5625 34.398438-35.488281 35.488281-34.398438-22.5625c-2.847656-1.875-6.539062-1.875-9.386719 0-20.4375 13.554687-43.292969 23.046875-67.320312 27.957031-3.332031.683594-5.941407 3.28125-6.636719 6.613281l-8.398438 40.226563h-50.132812l-8.40625-40.226563c-.691406-3.324219-3.289062-5.921875-6.613281-6.613281-21.105469-4.351562-41.332031-12.210938-59.84375-23.246094-1.03125-.542968-2.132813-1.234375-3.617188-2.21875-1.195312-.707031-2.332031-1.484375-3.6875-2.414062-.933593-.625-1.980469-1.066406-3.078125-1.296875h-.0625c-2.183594-.4375-4.453125 0-6.320312 1.210937l-34.476563 22.570313-35.5-35.496094 22.570313-34.476563c1.917968-2.972656 1.800781-6.824218-.296875-9.675781h.050781c-.777344-1.136719-1.554688-2.269531-2.558594-3.917969-.667968-1.007812-1.339844-2.089843-2.066406-3.414062v-.066406c-10.9375-18.410156-18.726562-38.519532-23.039062-59.496094-.691407-3.320312-3.289063-5.917969-6.613282-6.613281l-40.3125-8.472657v-50.132812l40.226563-8.40625c3.332031-.695312 5.929687-3.304688 6.613281-6.636719 4.910156-24.027343 14.402344-46.882812 27.957031-67.320312 1.875-2.847657 1.875-6.539063 0-9.386719l-22.554687-34.390625 35.488281-35.488281 34.398437 22.5625c2.847657 1.875 6.539063 1.875 9.386719 0 20.433594-13.558594 43.289063-23.050782 67.3125-27.964844 3.332031-.683594 5.941407-3.28125 6.636719-6.613281l8.40625-40.226563h50.132812l8.398438 40.226563c.691406 3.324219 3.289062 5.921875 6.613281 6.613281 17.3125 3.613281 34.042969 9.59375 49.722657 17.773438l-25.546876 25.550781c-20.261718-8.863281-42.144531-13.414063-64.257812-13.363281-89.503906.097656-162.035156 72.628906-162.132812 162.132812-.082032 24.167969 5.335937 48.035156 15.835937 69.800781 15.984375 33.488281 42.96875 60.480469 76.453125 76.46875 21.773438 10.519531 45.660156 15.941407 69.84375 15.863281 89.503906-.097656 162.035156-72.628906 162.132812-162.132812.050782-22.113281-4.5-43.996094-13.363281-64.257812l25.550781-25.546876c8.175782 15.671876 14.160157 32.394532 17.773438 49.699219.691406 3.324219 3.289062 5.917969 6.613281 6.613281l40.226563 8.429688zm0 0"/></svg>