<svg height="512" viewBox="0 0 61 30" width="512" xmlns="http://www.w3.org/2000/svg"><g id="099---Left-Arrow" fill="none"><g id="Icons" transform="translate(2 1)"><path id="Shape" d="m37 0c-16.1 0-22.86 5.74-24.55 7.5l-4.45-2.5-8 14v9l24-5v-5.31c3.7421856-1.8010168 7.8470924-2.7212 12-2.69 7 0 14 4 14 4l8-5v-9s-6-5-21-5z" fill="#f0c419"/><path id="Shape" d="m58 5-8 5s-7-4-14-4c-5.949217-.11959316-11.7557901 1.82771166-16.43 5.51l.5.28 3.93 2.21-11.43 2.38h-.01l-12.56 2.62 8-14 4.45 2.5c1.69-1.76 8.45-7.5 24.55-7.5 15 0 21 5 21 5z" fill="#ffdc00"/><path id="Shape" d="m58 5-8 5c-1.0319036-.56346631-2.0934452-1.07086984-3.18-1.52l7.18-4.48c-1.989845-1.40617508-4.2147487-2.44581806-6.57-3.07 7.43 1.45 10.57 4.07 10.57 4.07z" fill="#fec108"/><path id="Shape" d="m50 10v9s-7-4-14-4c-4.1529076-.0312-8.2578144.8889832-12 2.69v-3.69l-3.93-2.21-.5-.28c4.6742099-3.68228834 10.480783-5.62959316 16.43-5.51 7 0 14 4 14 4z" fill="#ff9801"/><path id="Shape" d="m58 5v9l-3 1.88-5 3.12v-9z" fill="#ff9801"/><path id="Shape" d="m55 6.875v7.125l-3 1.88-2 1.248v1.872l5-3.12 3-1.88v-9z" fill="#f57c00"/><path id="Shape" d="m24 14v9l-24 5v-9l12.56-2.62h.01z" fill="#ff9801"/></g><path id="Shape" d="m39 0c-15.1 0-22.262 5.011-24.712 7.262l-3.8-2.134c-.479092-.26903693-1.08550627-.10113429-1.358.376l-8 14c-.187.332-.13-.28-.13 9.496 0 .5522847.44771525 1 1 1 .157 0-1.54.342 24.2-5.021.4652983-.0949785.799622-.5041071.8-.979v-4.676c3.4554679-1.5610035 7.2084177-2.3538994 11-2.324 6.643 0 13.437 3.83 13.5 3.868.3196091.1826985.7137538.1750154 1.026-.02l8-5c.2939126-.1817749.4731407-.5024193.474-.848v-9c.000433-.29691859-.1311023-.5786753-.359-.769-.257-.212-6.453-5.231-21.641-5.231zm-28.624 7.358 3.584 2.014c.3977564.22351729.8963698.14946581 1.212-.18 8.4-8.756 32.44-9.177 42.967-3.208l-6.175 3.86c-1.785-.939-7.807-3.844-13.964-3.844-6.1844306-.11392692-12.2176461 1.91634284-17.075 5.746-.2505304.2114195-.3815294.5322054-.3506094.8585605.0309199.3263551.2198319.6168315.5056094.7774395l2.105 1.183-19.215 4zm14.624 15.829-22 4.584v-6.959l22-4.583zm2-6.045v-2.142c.0001003-.3614799-.1948899-.6948749-.51-.872l-3.108-1.747c4.3084235-2.92416867 9.4114644-4.45354492 14.618-4.381 5.616 0 11.325 2.731 13 3.6v6.759c-2.481-1.198-7.692-3.359-13-3.359-3.7726366-.0247173-7.5122925.7034957-11 2.142zm26 1.058v-6.646l6-3.75v6.641z" fill="#000"/></g></svg>